<?xml version="1.0" standalone="no"?>
<!DOCTYPE svg PUBLIC "-//W3C//DTD SVG 1.1//EN" "http://www.w3.org/Graphics/SVG/1.1/DTD/svg11.dtd" >
<svg xmlns="http://www.w3.org/2000/svg">
<metadata>Generated by IcoMoon</metadata>
<defs>
<font id="yqy" horiz-adv-x="1024">
<font-face units-per-em="1024" ascent="896" descent="-128" />
<missing-glyph horiz-adv-x="1024" />
<glyph unicode="&#x20;" horiz-adv-x="0" d="" />
<glyph unicode="&#x78;" glyph-name="notdef" horiz-adv-x="1001" d="M281 543q-27-1-53-1h-83q-18 0-36.5-6t-32.5-18.5-23-32-9-45.5v-76h912v41q0 16-0.5 30t-0.5 18q0 13-5 29t-17 29.5-31.5 22.5-49.5 9h-133v-97h-438v97zM955 310v-52q0-23 0.5-52t0.5-58-10.5-47.5-26-30-33-16-31.5-4.5q-14-1-29.5-0.5t-29.5 0.5h-32l-45 128h-439l-44-128h-63q-20 0-45 1-25 0-41 9.5t-25.5 23-13.5 29.5-4 30v167h911zM163 247q-12 0-21-8.5t-9-21.5 9-21.5 21-8.5q13 0 22 8.5t9 21.5-9 21.5-22 8.5zM316 123q-8-26-14-48-5-19-10.5-37t-7.5-25-3-15 1-14.5 9.5-10.5 21.5-4h365q23 0 34 12t2 38q-5 13-9.5 30.5t-9.5 34.5q-5 19-11 39h-368zM336 498v228q0 11 2.5 23t10 21.5 20.5 15.5 34 6h188q31 0 51.5-14.5t20.5-52.5v-227h-327z" />
<glyph unicode="&#xe101;" glyph-name="guanjiancihuifu" d="M836 440q15-53 15-110 0-80-31-152.5t-83.5-125-125.5-83.5-153-31-152.5 31-125 83.5-84 125-31.5 152.5q0 54 14.5 105t39.5 94 61.5 79 79.5 61.5 94 39.5 104 14q26 0 51-3t49-10l18 51q-28 8-57.5 12t-60.5 4q-91 0-173.5-35.5t-142.5-95-95-142.5-35-173.5 35-173.5 95-142.5 142.5-95 173.5-35.5q61 0 119 16t107 45 90 70 70 90 45 107 16 118q0 67-19 130zM458 491q12 0 24-2l17 52q-20 4-41 4-43 0-83-17t-68.5-46-45.5-68.5-17-83.5q0-58 28.5-107.5t78-78 107.5-28.5q89 0 151.5 63t62.5 151q0 23-4 44l-51-19q1-6 1.5-12t0.5-13q0-32-13-62t-34.5-51.5-51-34-62.5-12.5q-44 0-81 21.5t-58.5 58.5-21.5 80.5 21.5 80.5 58.5 58.5 81 21.5v0zM1012 688h-197v197l-53-55-143-142v-159l-197-197 38-37 197 196h158l143 143zM795 545h-123v122l90 89v-122h122z" />
<glyph unicode="&#xe102;" glyph-name="guanzhuhuifu" d="M971 589q33-73 25-149t-42.5-141-94-114-129.5-67q-5-2-17-5-19-5-29.5-7.5t-29-7.5-30.5-7-29-5.5-30.5-4.5-29.5-2.5-31.5-1-30.5 2.5q-34 3-76-32-61-50-108-72-5-2-16-7.5t-18.5-9-18-7.5-18.5-5-16.5 1-15.5 7q-8 7-12 15.5t-4.5 15 4 18 7 16.5 10 18 9.5 17q38 68-28 121-89 71-126.5 160.5t-10.5 190.5q55 204 302 272 34 9 82.5 14.5t111 5.5 127.5-13 125-36.5 110.5-70 77.5-110.5zM314 735q-60-19-107-53.5t-77.5-82-40.5-102.5q-31-165 124-273 1-1 4-3l15-11q5-3 13.5-10t13-12.5 9.5-13 6.5-15 1-17-4.5-19.5q-19-51-13-70t29.5-11 56.5 39q70 66 185 54 92-9 218 53 83 41 137.5 106.5t59.5 153.5q2 36-7.5 70.5t-27.5 63.5-43.5 55-53 46-57.5 36q-36 20-80.5 31.5t-87.5 14-84.5 1.5-79-7-64-12-45.5-12zM634 468q0-19 14-33t33-14q10 0 18.5 3.5t15.5 10.5q14 14 14 33.5t-14 33.5-33.5 14-33.5-14-14-34zM458 468q0-4 1-8.5t2.5-9 4-8.5 6.5-7q14-14 33-14 4 0 7.5 0.5t7 1.5 7 3 6.5 4 6 5q14 14 14 33.5t-14 33.5-33.5 14-33.5-14-14-34zM281 468q0-19 14-33t34-14q9 0 18 3.5t15.5 10 10.5 15.5 4 18q0 20-14 34t-34 14-34-14q-6-6-10-15t-4-19z" />
<glyph unicode="&#xe103;" glyph-name="wenzhangguanli" d="M86-117q-32 0-54.5 22.5t-22.5 53.5v851q0 13 4 24.5t11 21 16.5 16.5 21 11 24.5 4h851q31 0 53.5-22.5t22.5-54.5v-520q0-12-9-22l-377-377q-4-5-9.5-7t-12.5-2h-519v1zM133 829q-27 0-46-19t-19-46v-757q0-27 19-46t46-19h443v301q0 16 6 30t16.5 24.5 24.5 16.5 30 6h301v443q0 27-19 46t-46 19h-756v1zM700 261q-17 0-32-9t-24-24-9-32v-210l275 275h-210zM275 214q-8 0-15 4t-11 11-4 15q0 13 8.5 21.5t21.5 8.5h95q8 0 15-4t11-11 4-15q0-13-8.5-21.5t-21.5-8.5h-95zM275 403q-6 0-11.5 2.5t-9.5 6.5-6.5 9.5-2.5 11.5q0 5 1.5 9.5t4 8.5 6.5 6.5 8.5 4 9.5 1.5h473q13 0 21.5-8.5t8.5-21.5q0-8-4-15t-11-11-15-4h-473zM275 592q-13 0-21.5 8.5t-8.5 21 8.5 21.5 21.5 9h473q13 0 21.5-9t8.5-21.5-8.5-21-21.5-8.5h-473z" />
<glyph unicode="&#xe104;" glyph-name="liuyanguanli" d="M979 593q34-74 25.5-151.5t-44-144-96-116.5-130.5-68q-6-2-18-5-53-14-82.5-21t-76.5-12-86-1q-15 1-29-3t-24-11-24-18q-62-52-110-73-5-3-20-10.5t-23.5-11-21-7-22.5-2-18 8.5q-8 6-12 12.5t-4 14 0.5 14 5 16 7.5 15 9 15.5 8 15q39 69-29 123-90 72-128.5 163.5t-10.5 194.5q56 208 308 277 34 9 83.5 14.5t113.5 6 130-13 127-37.5 112.5-71.5 79.5-112.5zM309 742q-92-29-152.5-93.5t-76.5-148.5q-31-169 126-279 2-1 5-3 11-8 17-12.5t16-13 14.5-15.5 8.5-16.5 3.5-20-5.5-22.5q-19-52-12.5-71.5t30-11 57.5 40.5q40 37 85.5 49t102.5 6q51-6 109 10t113 43q86 42 141 109t60 156q2 36-7.5 72t-28 65-44.5 56-53.5 47-58.5 37q-55 29-125 40.5t-134.5 6.5-111.5-13-79-18zM290 489h489v51h-489l2-42q0-3-1.5-5.5t-2-2.5 1.5-1v0zM290 324h306v51h-306l2-43q0-2-3-6l1-2z" />
<glyph unicode="&#xe105;" glyph-name="pinglunguanli" d="M955 446q-3-61-32.5-114t-71.5-88.5-97-63.5q-129-63-223-53-58 6-103.5-6t-85.5-50q-53-50-77.5-41.5t2.5 84.5q5 12 5.5 23t-5 21.5-9 16.5-16.5 16.5-16 13-19 12.5q-157 111-126 280 16 85 77 149.5t153 93.5q34 11 83 19.5t123.5 12 139.5-11.5q11-2 19 14l3 11q0 11-6 18t-17 11q-37 7-77 9.5t-74 2-67-3.5-58.5-7-44.5-10q-253-69-309-277-28-104 10-196t129-164q68-54 30-124-2-3-10-16.5t-10.5-19-7-17-4-18.5 4.5-15.5 12-15.5q24-19 81 10 23 11 25 12 47 22 110 74 43 35 77 32 14-2 29-2h25q11 0 28 2t25 2.5 27.5 4.5 25 5 27.5 6.5 24.5 6 27 7 25.5 6.5q71 19 131.5 69t96 117 44 144.5-24.5 152.5q-4 7-7.5 14.5t-7.5 14.5q-2 8-12.5 12t-21.5 4q-15-2-26-11t-6-17q58-77 52-162zM523 420q-6 5-8.5 11.5t-2.5 12 4 9.5l376 369q5 5 16 3t18-9q6-6 8-14.5t-2-14.5l-377-369q-2-2-4.5-3.5t-6-2-7 0-7.5 2.5-7 5zM418 499h-162q-9 0-15 6.5t-6 19.5q0 12 6 19t15 7h162q21 0 21-26 0-9-3-15t-7.5-8.5-10.5-2.5zM706 298h-454q-9 0-14.5 7t-5.5 19q0 11 5.5 18t14.5 7h454q20 0 20-25.5t-20-25.5z" />
<glyph unicode="&#xe106;" glyph-name="luntanguanli" d="M511-52q-321 0-321 158 0 51 61.5 88t150.5 52q-28 23-46.5 54.5t-27 68-11.5 69-3 71.5q0 95 53 149t147 54h7q62 0 107-24t69-70 24-109q0-39-3-71.5t-11.5-69-27-68-46.5-54.5q56-10 102.5-28t77.5-47.5 31-64.5q1-158-333-158v0zM514 661q-137 0-137-140 0-8-0.5-37.5t0-40.5 2-35.5 5.5-37 10.5-30 17.5-29.5 25-21q2-1 4-2.5t3-3.5l4-4 2-4q2-2 2.5-4.5t1.5-4.5 1-5v-36q0-10-4.5-18.5t-12.5-14-18-6.5q-84-9-129.5-36.5t-45.5-60.5q0-91 265-91 87 0 150 10.5t96.5 31 33.5 49.5q0 11-6.5 23t-21 23.5-34.5 21.5-49.5 18-63.5 11q-15 2-25 13t-10 26v31q0 22 18 33 14 9 25 21t17.5 29.5 10.5 30 5.5 37.5 2 35.5 0 40-0.5 37.5q0 140-137 140h-7zM986 133q-15 0-26 11t-11 26q0 9-4.5 20.5t-16 25-27 25-39 20.5-50.5 12q-14 2-23.5 12t-9.5 24v82q0 20 17 31 52 32 75 86t23 110q0 38-14.5 66t-33.5 42-45 22-42 9.5-31 1.5q-37 0-37 26 0 8 3 14.5t8 11.5 11.5 8 14.5 3q40 0 77.5-11t70.5-34 53-64 20-95-14.5-98-39-75.5-60.5-59.5l5-68q81-17 126-56t45-89q0-39-25-39v0zM40 133q-26 0-26 39 0 50 45.5 89t126.5 56l5 68q-56 42-85.5 98t-29.5 135q0 44 13.5 79t35.5 58 51 38.5 59.5 22 62.5 6.5q15 0 25.5-11t10.5-26q0-26-36-26-15 0-31-1.5t-42-9.5-45.5-22-34-42-14.5-66q0-56 23.5-110t74.5-86q17-11 17-31v-82q0-14-9-24t-23-12q-64-6-101-41t-37-62q0-8-3-14.5t-7.5-11.5-11.5-8-14-3v0z" />
<glyph unicode="&#xe107;" glyph-name="tupianguanli" d="M914 787h-804q-41 0-70.5-29.5t-29.5-71.5v-603q0-42 29.5-71t70.5-29h804q42 0 71.5 29t29.5 71v603q0 42-29.5 71.5t-71.5 29.5v0zM121 729h782q22 0 38-16t16-38v-138q-31 10-58 18t-68.5 16.5-80.5 7-67-14.5q-34-15-67.5-37t-60.5-45.5-53-48.5-47.5-48.5-40.5-43.5-37-34.5-32-20.5q-122-51-277-21v410q0 9 2.5 17t7.5 14.5 11.5 11.5 14.5 8 17 3v0zM903 41h-782q-14 0-26.5 7t-19.5 19.5-7 26.5v111q166-23 292 19 24 8 51.5 32.5t57 57 62.5 67 77 68 90 54.5q86 38 259-27v-382q0-22-16-37.5t-38-15.5v0zM223 488q25 0 47 13t34.5 34.5 12.5 47.5q0 39-27.5 66.5t-66.5 27.5-67-27.5-28-66.5 28-67 67-28zM223 624q17 0 29-12t12-29q0-9-3.5-16.5t-9-13-13-9-15.5-3.5q-12 0-21.5 5.5t-15 15-5.5 21.5q0 8 3.5 15.5t9 13 13 9 16.5 3.5z" />
<glyph unicode="&#xe108;" glyph-name="shipinguanli" d="M778 417l-413 239v-545l472 272zM435 215v337l292-169zM511 873q-66 0-129.5-18t-117.5-49.5-99-76.5-76.5-98.5-49-117-17.5-130.5q0-99 38.5-190t104-156.5 156.5-104 190.5-38.5 190 38.5 156 104 104.5 156.5 39 190q0 80-25 154.5t-70 135-105.5 105.5-135 70-154.5 25zM511-37q-114 0-211 56t-153.5 153-56.5 211 56.5 211 153.5 153.5 211 56.5 211-56.5 153.5-153.5 56.5-211q0-68-21.5-132.5t-60.5-116-90.5-90.5-115.5-60-133-21z" />
<glyph unicode="&#xe109;" glyph-name="quanjingguanli" d="M773 227l-50-38q34-10 59.5-22.5t36.5-22 11-15.5q0-19-60-38-105-35-302-35-76 0-139.5 5.5t-103.5 14-68 18.5-39.5 19-11.5 16q0 11 28 28t79 32l-50 36q-58-18-91-43t-33-53q0-38 57.5-70t156.5-51 215-19 215 19 156.5 51 57.5 70q0 57-124 98v0zM48 335q38-29 86-29 38 0 60.5 19t22.5 50q0 70-101 70h-30v39h29q89 0 89 66 0 61-68 61-39 0-73-26v44q36 21 85 21 23 0 42-6t34-19q28-24 28-64 0-72-74-93v-1q40-5 63.5-29t23.5-60q0-50-36-80.5t-96-30.5q-52 0-85 20v48zM545 596q-29 15-61 15-48 0-77-41.5t-30-114.5h2q26 51 84 51 48 0 76.5-31.5t28.5-83.5q0-27-8-49t-25-40q-33-35-85-35-56 0-88 44.5t-32 125.5q0 98 42 155.5t111 57.5q39 0 62-11v-43zM380 395q0-19 5-34.5t15-28.5q6-9 14-14.5t17.5-8.5 20.5-3q30 0 49 22.5t19 57.5q0 20-4.5 34.5t-13.5 25.5q-18 21-51 21-10 0-19.5-2.5t-17.5-7-14.5-11.5-10.5-15.5-6.5-17-2.5-18.5zM610 451q0 99 32.5 149t94.5 50q118 0 118-190 0-93-33-143t-93-50q-11 0-21.5 2t-20 6-17.5 9.5-15 13-14 16.5q-31 48-31 137zM658 454q0-148 75-148 74 0 74 150 0 155-72 155-77 0-77-157zM830 697q0 38 21 60t58 22q35 0 54.5-21t19.5-59q0-36-21-58.5t-56-22.5-55.5 21.5-20.5 57.5zM858 698q0-27 13.5-42.5t35.5-15.5q24 0 36 15t12 43-12 43.5-36 15.5q-23 0-36-16t-13-43z" />
<glyph unicode="&#xe10a;" glyph-name="xinzengshangpin" d="M1008 367q0-7-2.5-12.5t-7.5-9-11-5-13-1.5h-910q-15 0-24.5 7t-9.5 21q0 13 9.5 20.5t24.5 7.5h907q15 0 26-7.5t11-20.5v0zM512 862q7 0 12.5-2.5t9-7.5 5.5-11 2-14v-909q0-6-1.5-11t-3.5-9-5.5-7-8-5-10.5-2q-7 0-12.5 3t-8.5 7.5-5 10.5-2 13v910q0 10 3 17.5t9.5 12 15.5 4.5v0z" />
<glyph unicode="&#xe10b;" glyph-name="shangpinguanli" d="M769 689q-20 0-33.5-14t-13.5-33q0-25 20-39-14-73-72-118.5t-136.5-45.5-136.5 45.5-71 118.5q20 14 20 39 0 19-14 33t-33.5 14-33.5-14-14-33q0-7 2-13.5t6-12 9-10 10-7.5q16-92 88-154t167.5-62 167.5 62 88 154q27 13 27 43 0 19-14 33t-33 14v0zM890 877h-756q-39 0-66.5-27.5t-27.5-66.5v-800q0-38 27.5-66t66.5-28h756q39 0 66.5 28t27.5 66v825q0 8-1.5 22t-4.5 20-8.5 13.5-14.5 10.5-22 3h-43zM928-8q0-19-13.5-33t-33.5-14h-738q-20 0-33.5 14t-13.5 33v782q0 20 13.5 33.5t33.5 13.5h738q5 0 10-1t9-2.5 8-4 7-6 5.5-7 4.5-8 2.5-9 0.5-9.5v-782z" />
<glyph unicode="&#xe10c;" glyph-name="dingdanguanli" d="M371 806h281v58h-281v-58zM395 712h234v59h-234v-59zM483 818v-47h58v47h-58zM746 734h36q39 0 66.5-31.5t27.5-72.5v-561q0-47-34-76.5t-83-29.5h-493q-48 0-82.5 34.5t-34.5 82.5v561q0 39 27 66t66 27h36v60h-47q-59 0-100-41t-41-99v-586q0-33 13-63.5t35-52.5 52.5-35 63.5-13h515q68 0 116 48.5t48 115.5v586q0 58-40.5 99t-99.5 41h-47v-60zM271 543h481v-59h-481v59zM271 382h480v-59h-480v59zM271 222h481v-59h-481v59z" />
<glyph unicode="&#xe10d;" glyph-name="faqicuxiao" d="M668-102q-22 0-43 9l-87 37q-4 2-8.5 3.5t-9 2-9.5 0.5-9.5-0.5-9-2-8.5-3.5l-87-37q-20-9-42-9.5t-42 8-35 24-24 35.5l-34 89q-11 27-39 38l-88 35q-42 16-59.5 58.5t0.5 83.5l38 87q2 5 3.5 10.5t2 11 0 11-2 11-3.5 11.5l-38 86q-18 42-1 84 9 20 24.5 35.5t35.5 23.5l88 34q13 6 23.5 16t15.5 23l34 88q6 14 14.5 25.5t20 20 24.5 14.5q20 8 42 8t42-9l87-38q27-11 54 0l87 38q42 18 84 0.5t58-59.5l35-88q11-28 39-39l88-34q42-17 59-59 5-10 7-20.5t2-21-2.5-21.5-6.5-21l-38-86q-3-7-4.5-14t-1.5-14 1.5-14 4.5-13l38-87q18-42 0-83-8-21-23.5-36t-35.5-23l-88-35q-6-2-10.5-5t-9-6.5-8-7.5-6.5-9-5-10l-35-89q-16-42-58-59-20-8-41-8v0zM511 4q21 0 41-8l83-37q13-5 26-5t26 5q8 3 15 8.5t12 12.5 9 16l33 84q16 42 58 58l85 33q3 2 6 3.5t5.5 3 5 3.5 5 4.5 4.5 5 4 5.5 3.5 5.5 2.5 6.5q4 8 5 16.5t-0.5 17.5-4.5 17l-36 83q-9 20-9 41.5t9 40.5l36 84q11 25 0.5 51t-36.5 36l-85 34q-42 16-58 58l-33 84q-11 26-36 37-13 5-26 5t-26-6l-83-36q-41-18-82 0l-83 36q-26 11-52 1-6-3-11.5-6.5t-10-8.5-8-10.5-6.5-11.5l-33-85q-17-41-58-58l-85-33q-26-10-37-36-1-3-2-5.5t-2-5.5v-6q-1-3-1-6t0.5-5.5 0.5-5.5 1-6l2-6q1-3 2-5l36-84q9-19 9-40.5t-9-41.5l-36-83q-11-26-0.5-51.5t36.5-36.5l85-33q41-16 58-58l33-85q3-8 8.5-15t12.5-12.5 15-8.5q26-11 52 0l83 36q19 9 41 9v0zM244 204q30-8 58 5 15 8 20 17t1 17q-1 4-4.5 6.5t-7.5 4.5q-9 3-41 2-50-3-66 31-12 25 0 48 5 7 11 13.5t14 12.5 19 11q26 12 47 14l17-35q-8 1-16 0.5t-16-2.5-16-6q-14-7-20-16t-2-18q3-7 12-10 4-1 13-1.5t23-0.5q32 2 47.5-6t24.5-26q12-25 0-47-2-4-4.5-7.5t-5.5-6.5-7-6.5-8-6.5-9-5l-11-6q-30-15-55-14zM569 304l-42-20-32 34-65-30 7-47-41-20-20 208 45 22zM472 343l-49 52q-5 5-11 14h-1q2-4 3-8.5t1-8.5l10-71zM695 364l-104-50-84 178 37 18 70-147 66 32zM824 425l-105-50-84 178 101 48 14-31-63-30 20-42 59 28 15-31-59-28 20-43 68 32z" />
<glyph unicode="&#xe10e;" glyph-name="cuxiaoguanli" d="M943 538v-556h-863v555h-62v-616h986v617h-61zM18 845v-246h986v62l-924-1v124h924v61h-986zM881 136h-123q-34 0-62 16.5t-44.5 45-16.5 62.5q0 51 36 87t87 36h123v-62h-123q-9 0-17-2t-14.5-6-12-9.5-9.5-12.5-6.5-15-2.5-16q0-26 18-44t44-18h123v-62z" />
<glyph unicode="&#xe10f;" glyph-name="pingjiaguanli" d="M356 157h-39q-10 0-17 8t-7 18q0 7 3 14t9 11.5 12 4.5h39q10 0 17-9.5t7-20.5q0-10-7-18t-17-8zM356 508h-39q-10 0-17 8.5t-7 19 7 19 17 8.5h39q10 0 17-8.5t7-19-7-19-17-8.5zM356 332h-39q-10 0-17 9t-7 19q0 7 3 13.5t9 10.5 12 4h39q5 0 9.5-2.5t7.5-6.5 5-9 2-10q0-10-7-19t-17-9zM512-98q-98 0-187.5 38t-154 102.5-102.5 153.5-38 187 38 187.5 102.5 154 154 102.5 187.5 38q52 0 102.5-11t96.5-32q10-10 8.5-22t-12-20.5-20.5-3.5q-73 33-175 33-121 0-218.5-55t-152.5-152.5-55-218 55-218 152.5-152.5 218.5-55q90 0 169 32t135.5 88.5 88.5 135.5 32 169q0 60-8 96-3 16 9.5 24.5t27 4.5 15.5-18q3-11 4.5-21t3-21 2.5-21.5 1.5-21.5 0.5-22q0-199-141-340t-340-141v0zM473 213h311q10 0 17-9t7-19.5-7-19-17-8.5h-311q-10 0-17.5 8.5t-7.5 19 7.5 19.5 17.5 9zM473 508q-4 0-7 1t-5.5 2.5-4.5 4-3 5.5l-2 6q-1 3-1 7 0 11 6.5 20t16.5 9h87q7 0 13-4.5t9.5-11.5 3.5-13q0-10-8-18t-18-8h-87zM583 346q-1-2-3-3-3-5-8.5-8t-11.5-3h-87q-5 0-9.5 2.5t-8 6.5-5.5 9-2 10q0 7 3.5 13.5t9 10.5 12.5 4h77l337 328q8 6 19 5t18.5-8.5 8.5-18.5-6-18z" />
<glyph unicode="&#xe110;" glyph-name="xiaoshoufenxi" d="M874 896h-723q-25 0-48-10t-39.5-26.5-26.5-39.5-10-48v-778q0-10-0.5-28t-0.5-27 1-22.5 4.5-20 9.5-13.5 16.5-10 24.5-3h792q33 0 61.5 16.5t45 45 16.5 62.5v778q0 10 1 28t0.5 27-1.5 22.5-4.5 20-9.5 13.5-16 10-25 3h-68zM938-21q0-21-14.5-35.5t-35.5-14.5h-752q-20 0-35 15t-15 35v808q0 13 6.5 25t18.5 18.5 25 6.5h752q14 0 25.5-6.5t18-18.5 6.5-25v-808zM505 646q0-15 10-22.5t26-7.5h227l-254-297-155 163q-10 11-26 11-15 0-26-10l-166-265q-25-25-5-46 3-2 5-6 4-4 8-5 7 0 14 3t12 8l156 263 158-177q11-11 26-11 8 0 14.5 3t11.5 8l273 338v-253q0-18 4.5-27t18.5-9q15 0 25.5 10.5t10.5 25.5v332h-332q-10 0-18-3t-13-9.5-5-16.5v0z" />
<glyph unicode="&#xe111;" glyph-name="fenxiaoxitong" d="M905 133v0q-15 46-42 93.5t-57 77.5q-52 53-124 83-64 27-131 32h-10v103q0 1-1 2l-1 11 2 4q20 4 38.5 12t34 19.5 28 26.5 21 32 13.5 36.5 5 40.5q0 70-49.5 119.5t-119.5 49.5q-46 0-84.5-22.5t-61.5-61.5-23-85q0-41 18-76.5t49.5-59 71.5-31.5l2-4-1-10-1-3v-101l-10-1q-68-4-131-31-36-15-67.5-36t-57.5-47q-12-13-24-28t-22.5-31.5-20-34-17-36-13.5-35.5l-2-7v-1q-42-9-69-42.5t-27-75.5q0-50 35.5-85.5t85.5-35.5 85.5 35.5 35.5 85.5q0 40-23.5 71.5t-61.5 43.5l-7 4 4 11q52 138 179 193 24 10 48.5 16.5t38 8.5 29.5 3l12 2v-236q-27-7-49.5-24.5t-36.5-42.5-14-52q0-50 39-84.5t90-34.5q50 0 85.5 35.5t35.5 85.5q0 41-25.5 74t-65.5 43v236l12-2q15-1 28.5-3t37-8 47.5-16q131-56 183-194l4-11-8-4q-38-12-61-44t-23-71q0-25 9.5-47.5t26-38.5 38.5-25.5 47-9.5q50 0 85 35.5t35 85.5q0 43-27 76.5t-70 41.5v0zM209 15q0-14-5.5-26.5t-14.5-21.5-21-14.5-26-5.5q-28 0-47.5 20t-19.5 48 19.5 47.5 47.5 19.5 47.5-19.5 19.5-47.5zM397 706q0 48 33.5 81.5t81.5 33.5 81.5-33.5 33.5-81.5-33.5-82-81.5-34-81.5 34-33.5 82zM583 15q0-30-21-51t-50.5-21-50.5 21-21 50.5 21 51 50.5 21.5 50.5-21.5 21-50.5zM882-50q-27 0-46 19t-19 46 19 46 46 19q17 0 32-9t24-24 9-32q0-27-19-46t-46-19z" />
<glyph unicode="&#xe112;" glyph-name="dianpuguanli" d="M970-38h-80v402q47 6 78.5 48t32.5 104h-980q1-61 31.5-103t77.5-49v-402h-78q-13 0-22-10t-9-24 9-24 22-10h918q13 0 22 10t9 24-9 24-22 10v0zM511 459q12-42 45.5-69t75.5-27 75 27 46 69q18-63 75-87v-410h-401v407q30 10 52.5 34t31.5 56v0zM192 371q27 11 47.5 34t29.5 54q11-36 37-61.5t60-32.5v-403h-174v409zM828 807h31v33q0 9-4.5 17t-11.5 12.5-15 4.5h-637q-13 0-22-10t-9-24v-33h668zM296 276q-3 0-5.5-1.5t-4.5-3.5-3-5-1-6v-134q0-6 4-10.5t10-4.5 10.5 4.5 4.5 10.5v134q0 7-4.5 11.5t-10.5 4.5zM557 115q11-11 21 0l118 129q10 11 0 22.5t-20 0.5l-119-129q-10-12 0-23v0zM603 114q-6-7-0.5-13.5t11.5 0.5l96 103q1 2 1.5 3.5t0.5 3.5-0.5 3.5-1.5 2.5q-2 2-4 2.5t-4.5 0-3.5-2.5zM558 163l95 103q2 3 2 7t-2 6q-6 5-12 0l-95-103q-3-3-3-7t3-6q6-7 12 0zM993 549q-6 19-17 34l-114 196h-702l-115-197q-10-15-16-33h964zM763 741q3 2 7 2.5t7.5-1.5 5.5-6l75-127q3-4 3-8t-2-8-5-6q-12-9-20 5l-76 127q-3 6-1.5 12.5t6.5 9.5v0zM623 741l4 2q2 1 4.5 0.5t4.5-1 4-2 3-4.5l76-127q8-13-5-22-5-4-10.5-2.5t-9.5 7.5l-75 127q-8 13 4 22v0zM511 745q4 0 7.5-2t5-6 1.5-8v-129q0-3-1-6t-3-5-4.5-3.5-5.5-1.5q-4 0-7.5 2t-5.5 6-2 8v129q0 6 4.5 11t10.5 5zM303 609l76 127q8 14 20 5 5-3 6.5-9.5t-2.5-12.5l-75-127q-8-14-20.5-5t-4.5 22v0zM163 609l76 127q8 14 20 5 5-3 6.5-9.5t-1.5-12.5l-76-127q-8-14-20-5t-5 22v0z" />
<glyph unicode="&#xe113;" glyph-name="yuangongguanli" d="M356-119h-143q-75 0-127.5 56.5t-52.5 135.5v623q0 79 52.5 135t127.5 56h557q74 0 127-56t53-135v-60q0-16-7.5-26t-21.5-10-21.5 10-7.5 26v74q0 19-7 37.5t-19 33-27.5 26-33 17.5-35.5 6h-572q-29 0-54-16t-39-44-14-60v-652q0-49 31.5-84t75.5-35h158q16 0 26-7.5t10-21.5-10-21.5-26-7.5v0zM411 542h-198q-16 0-26 7.5t-10 21.5 10 21.5 26 7.5h198q7 0 13.5-2t11.5-5.5 8-9 3-12.5q0-14-10-21.5t-26-7.5zM339 327h-126q-16 0-26 7t-10 21.5 10 21.5 26 7h126q10 0 18-3t13-9.5 5-16.5q0-7-3-12.5t-8-9-11-5-14-1.5zM789 195q50 40 66.5 104t16.5 144q0 44-12.5 80t-37 60.5-60 37.5-79.5 13h-6q-88 0-138.5-50.5t-50.5-140.5q0-80 17-144t67-104q-84-14-142-48.5t-58-83.5q0-149 302-149 315 0 315 149 0 33-29.5 61t-73.5 45-97 26zM674-38q-251 0-251 86 0 31 43 57t123 35q14 1 23.5 11.5t9.5 24.5v30q0 6-2.5 12t-6 10.5-8.5 8.5q-14 9-24.5 20t-16.5 27.5-9.5 28.5-5 35-2 33 0 38 0.5 36q0 132 129 132h6q66 0 98-33t32-99v-65q0-10-1-29.5t-3-31-6-27-10-26-15.5-21.5-21.5-18q-8-5-12.5-13.5t-4.5-17.5v-30q0-9 4.5-17t12-13 16.5-6q40-5 72.5-15t52-22.5 30-26.5 10.5-28q0-40-70-63t-193-23zM356-119h-143q-75 0-127.5 56.5t-52.5 135.5v623q0 79 52.5 135t127.5 56h557q74 0 127-56t53-135v-60q0-16-7.5-26t-21.5-10-21.5 10-7.5 26v74q0 19-7 37.5t-19 33-27.5 26-33 17.5-35.5 6h-572q-29 0-54-16t-39-44-14-60v-652q0-49 31.5-84t75.5-35h158q16 0 26-7.5t10-21.5-10-21.5-26-7.5v0zM411 542h-198q-16 0-26 7.5t-10 21.5 10 21.5 26 7.5h198q7 0 13.5-2t11.5-5.5 8-9 3-12.5q0-14-10-21.5t-26-7.5zM339 327h-126q-16 0-26 7t-10 21.5 10 21.5 26 7h126q10 0 18-3t13-9.5 5-16.5q0-7-3-12.5t-8-9-11-5-14-1.5zM789 195q50 40 66.5 104t16.5 144q0 44-12.5 80t-37 60.5-60 37.5-79.5 13h-6q-88 0-138.5-50.5t-50.5-140.5q0-80 17-144t67-104q-84-14-142-48.5t-58-83.5q0-149 302-149 315 0 315 149 0 33-29.5 61t-73.5 45-97 26zM674-38q-251 0-251 86 0 31 43 57t123 35q14 1 23.5 11.5t9.5 24.5v30q0 6-2.5 12t-6 10.5-8.5 8.5q-14 9-24.5 20t-16.5 27.5-9.5 28.5-5 35-2 33 0 38 0.5 36q0 132 129 132h6q66 0 98-33t32-99v-65q0-10-1-29.5t-3-31-6-27-10-26-15.5-21.5-21.5-18q-8-5-12.5-13.5t-4.5-17.5v-30q0-9 4.5-17t12-13 16.5-6q40-5 72.5-15t52-22.5 30-26.5 10.5-28q0-40-70-63t-193-23z" />
<glyph unicode="&#xe114;" glyph-name="fuwuguanli" d="M902 383q0 64-19.5 123.5t-56 107.5-84.5 84-107.5 55.5-122.5 19.5q-106 0-196-52t-142-142-52-196 52-196 142-142 196-52 196 52 142 142 52 196v0zM175 383q0 11 0.5 21.5t2 21 3.5 20.5 4.5 20 5.5 20q121 3 228 48.5t183 123.5q44-45 99-80t118-57q30-66 30-138 0-68-27-130.5t-72-107.5-107.5-72-130.5-27q-55 0-106.5 17t-93 48.5-72.5 72.5-48 92.5-17 106.5v0zM385 486q-18 0-34-9.5t-25-25-9-34.5q0-11 3.5-21.5t10-19 14.5-14.5 18.5-9.5 21.5-3.5q22 0 39 12t25 31l-50 25 50 25q-5 13-14.5 22.5t-22 15.5-27.5 6v0zM643 349q14 0 27 5.5t22.5 15.5 14.5 22l-50 25 50 25q-5 13-14.5 22.5t-22.5 15-27 5.5q-28 0-48-20t-20-48 20-48 48-20v0zM979 451q-12 119-77 217t-168 155-222 57-222.5-57-168-155-76.5-217q-9-3-15.5-9.5t-10.5-15-4-17.5v-87q0-19 13.5-32t32-13 32 13 13.5 32v87q0 27-25 40 8 81 45.5 151t94.5 118.5 132.5 76 158.5 27.5 158-27.5 132.5-76 94.5-118.5 45-151q-24-13-24-40v-87q0-31 28-42-20-88-72.5-161t-129.5-120.5-166-61.5q-15 20-49 20-14 0-26-4.5t-19.5-12.5-7.5-18q0-15 15.5-25.5t37.5-10.5q11 0 20.5 3t16.5 7.5 11.5 10.5 4.5 13q141 23 245.5 121t136.5 236q18 0 31 13t13 32v87q0 14-8 25.5t-21 16.5v0z" />
<glyph unicode="&#xe115;" glyph-name="yuyueguanli" d="M391 354h-212v-60h212v60zM179 142h212v61h-212v-61zM754 384q-66 0-121.5-32.5t-88-88-32.5-121.5q0-100 71-171t171-71q66 0 121.5 32.5t88 88 32.5 121.5q0 100-71 171t-171 71zM754-40q-75 0-128.5 53.5t-53.5 128.5 53.5 128.5 128.5 53.5 128.5-53.5 53.5-128.5q0-49-24.5-91t-66.5-66.5-91-24.5zM118 51q-12 0-21 9t-9 22v363h700q30-4 57-15v227q0 37-26.5 64t-64.5 27h-61v121h-60v-121h-364v121h-60v-121h-91q-38 0-64-27-7-6-11.5-13.5t-8-15.5-5.5-17-2-18v-575q0-38 26.5-64.5t64.5-26.5h384q-22 27-36 60h-348zM88 596v61q0 12 9 21t21 9h91v-91h60v91h364v-91h60v91h61q12 0 21-9t9-21v-152h-696v91zM784 263h-60v-151h151v60h-91v91z" />
<glyph unicode="&#xe116;" glyph-name="huiyuanguanli" d="M356-119h-143q-75 0-127.5 56.5t-52.5 135.5v623q0 79 52.5 135t127.5 56h557q74 0 127-56t53-135v-60q0-16-7.5-26t-21.5-10-21.5 10-7.5 26v74q0 19-7 37.5t-19 33-27.5 26-33 17.5-35.5 6h-572q-29 0-54-16t-39-44-14-60v-652q0-49 31.5-84t75.5-35h158q16 0 26-7.5t10-21.5-10-21.5-26-7.5v0zM411 542h-198q-16 0-26 7.5t-10 21.5 10 21.5 26 7.5h198q7 0 13.5-2t11.5-5.5 8-9 3-12.5q0-14-10-21.5t-26-7.5zM339 327h-126q-16 0-26 7t-10 21.5 10 21.5 26 7h126q10 0 18-3t13-9.5 5-16.5q0-7-3-12.5t-8-9-11-5-14-1.5zM789 195q50 40 66.5 104t16.5 144q0 44-12.5 80t-37 60.5-60 37.5-79.5 13h-6q-88 0-138.5-50.5t-50.5-140.5q0-80 17-144t67-104q-84-14-142-48.5t-58-83.5q0-149 302-149 315 0 315 149 0 33-29.5 61t-73.5 45-97 26zM674-38q-251 0-251 86 0 31 43 57t123 35q14 1 23.5 11.5t9.5 24.5v30q0 6-2.5 12t-6 10.5-8.5 8.5q-14 9-24.5 20t-16.5 27.5-9.5 28.5-5 35-2 33 0 38 0.5 36q0 132 129 132h6q66 0 98-33t32-99v-65q0-10-1-29.5t-3-31-6-27-10-26-15.5-21.5-21.5-18q-8-5-12.5-13.5t-4.5-17.5v-30q0-9 4.5-17t12-13 16.5-6q40-5 72.5-15t52-22.5 30-26.5 10.5-28q0-40-70-63t-193-23zM356-119h-143q-75 0-127.5 56.5t-52.5 135.5v623q0 79 52.5 135t127.5 56h557q74 0 127-56t53-135v-60q0-16-7.5-26t-21.5-10-21.5 10-7.5 26v74q0 19-7 37.5t-19 33-27.5 26-33 17.5-35.5 6h-572q-29 0-54-16t-39-44-14-60v-652q0-49 31.5-84t75.5-35h158q16 0 26-7.5t10-21.5-10-21.5-26-7.5v0zM411 542h-198q-16 0-26 7.5t-10 21.5 10 21.5 26 7.5h198q7 0 13.5-2t11.5-5.5 8-9 3-12.5q0-14-10-21.5t-26-7.5zM339 327h-126q-16 0-26 7t-10 21.5 10 21.5 26 7h126q10 0 18-3t13-9.5 5-16.5q0-7-3-12.5t-8-9-11-5-14-1.5zM789 195q50 40 66.5 104t16.5 144q0 44-12.5 80t-37 60.5-60 37.5-79.5 13h-6q-88 0-138.5-50.5t-50.5-140.5q0-80 17-144t67-104q-84-14-142-48.5t-58-83.5q0-149 302-149 315 0 315 149 0 33-29.5 61t-73.5 45-97 26zM674-38q-251 0-251 86 0 31 43 57t123 35q14 1 23.5 11.5t9.5 24.5v30q0 6-2.5 12t-6 10.5-8.5 8.5q-14 9-24.5 20t-16.5 27.5-9.5 28.5-5 35-2 33 0 38 0.5 36q0 132 129 132h6q66 0 98-33t32-99v-65q0-10-1-29.5t-3-31-6-27-10-26-15.5-21.5-21.5-18q-8-5-12.5-13.5t-4.5-17.5v-30q0-9 4.5-17t12-13 16.5-6q40-5 72.5-15t52-22.5 30-26.5 10.5-28q0-40-70-63t-193-23z" />
<glyph unicode="&#xe117;" glyph-name="dengjishezhi" d="M1005 541l-455-614q-13-21-38-21t-38 21l-455 614q-15 22-2 46l246 250q13 25 40 25h412q27 0 40-24l252-250q13-24-2-47v0zM510 43l154 490h-306zM464 24l-173 509h-196zM311 808l-220-220h195l175 220h-150zM356 588h312l-146 208zM710 808h-127l156-219v-1h194zM732 533l-164-506 361 506h-197z" />
<glyph unicode="&#xe118;" glyph-name="jifenguize" d="M609 495q-10 10-19 16t-19.5 10.5-22.5 7-27 3.5q-48 1-53-42-1-15 4-27.5t15-21 23.5-16.5 28.5-15 30.5-14.5 29.5-18 25-22.5 17.5-30 6.5-40q0-15-3-28.5t-9-25-14.5-21-20-16.5-26-11.5-31.5-6.5v-63h-53v62q-14 1-27 4.5t-24.5 7.5-23 10-21 12.5-18.5 14.5l25 54q48-38 111-43 64-4 61 46-1 22-11.5 39t-26.5 28-35 20.5-37.5 20-34 22.5-25 32-9.5 45q0 42 24 70t69 34v62h55v-62q16-1 30-5t25.5-11 19.5-13.5 19-17.5zM512.5 824q89.5 0 171-35t140.5-94 94-140.5 35-170.5q0-60-16-117t-44.5-105.5-69-89-89-69-105.5-44.5-117-16q-45 0-88.5 9t-82.5 25.5-75 41-65.5 54-53.5 65-40.5 74.5-25.5 83-9 89q0 89 35 170.5t94 140.5 140.5 94 171 35zM512 880q-58 0-113.5-13t-104.5-37.5-92-58.5-77-77-58.5-92-37.5-104.5-13-113.5q0-101 39-193t105.5-158.5 158.5-106 193-39.5 193 39.5 158.5 106 106 158.5 39.5 193q0 58-13 113.5t-37.5 104.5-58.5 92-77 77-92 58.5-105 37.5-114 13v0z" />
<glyph unicode="&#xe119;" glyph-name="weixinhudongxiaoxi" d="M499 549q13 0 23 5.5t15.5 15.5 5.5 22q0 6-1 11t-3 9.5-5 8-6.5 6.5-8 5-9.5 3-11 1q-20 0-36-12.5t-16-31 16-31 36-12.5zM256 636q-21 0-37-12.5t-16-31.5q0-6 2-12t6-10.5 9-8.5 10.5-6.5 12-4 13.5-1.5q13 0 22.5 5.5t15 15.5 5.5 22q0 20-12 32t-31 12zM1020 270q0 103-83.5 180.5t-201.5 87.5q1 3 0 5-11 54-45.5 101.5t-83 81.5-110.5 54-127 20q-99 0-183-42t-132.5-113.5-48.5-156.5q0-141 136-241l-31-93q-3-11 5-17 2-2 4.5-3t5.5-1q4 0 7 1l117 59 15-3q67-14 105-14 16 0 34 2 6 0 11 6 32-81 112.5-131.5t181.5-50.5q37 0 103 16l90-49q3-2 7-2 6 1 10 4 8 7 5 17l-23 76q120 94 120 206v0zM398 228q-15-1-29-1-33 0-92 12l-18 4-10-2-81-40 21 63q3 11-6 17-61 43-92 94.5t-31 111.5q0 108 90.5 184t218.5 76q113 0 201.5-61t109.5-152q-78-1-143.5-34.5t-103.5-90.5-38-124q0-28 8-58-3 1-5 1v0zM858 99q-4-3-5.5-7.5t0.5-8.5l13-45-56 30q-3 2-7 2h-3q-61-16-92-16-105 0-180 63.5t-75 152.5 75 152 180 63q104 0 179.5-64t75.5-151q0-92-105-171v0zM612 384q-13 0-23.5-11t-10.5-24 10.5-24 23.5-11q10 0 18 3t14 8 9 11 3 13q0 8-5.5 16t-15.5 13.5-23 5.5zM804 384q-9 0-17-5.5t-13-13.5-5-16q0-13 11-24t24-11q19 0 31 10.5t12 24-12 24.5-31 11z" />
<glyph unicode="&#xe11a;" glyph-name="huiyuanbiaoqian" d="M552 821q6 6 13 6h367q7 0 12-3t7.5-7.5 2.5-10.5q0-5-0.5-60t-0.5-122v-124q0-56-1-59 0-12-6-18-461-460-461-461t-1-2-4.5-3-7-2.5-8.5 1-10 6.5q-3 3-25.5 25t-53.5 53.5-69 69.5-75.5 75-69 68-51.5 51l-23 23q-7 10-6.5 17.5t6.5 13.5q1 2 117.5 117.5t230.5 229 117 116.5v0zM564 881q-28 0-48-20-4-4-53-52.5t-118-117.5-136-136.5-120-121-58-57.5q-17-21-14.5-40.5t18.5-36.5q14-14 307-306l3-3 2-1 1-2 14-14 2-1 1-2 2-1 1-2 11-11 2-1 1-2 2-1 1-2 2-1 1-2 18-18 2-1 1-2 2-1 1-2 4-4 2-1 1-2 2-2 2-1 1-2 2-2q41-40 81 0 257 258 485 486 6 6 9 11.5t4.5 13.5 1.5 20v392q0 20-15 34.5t-36 14.5h-392zM888 657q0-30-14-55t-38-39.5-53-14.5q-21 0-40.5 8.5t-33.5 23-22.5 35-8.5 42.5 8.5 42 22.5 35 33.5 23.5 40.5 8.5q44 0 74.5-32t30.5-77zM783 720q-13 0-24.5-5t-20-13.5-13.5-20-5-24.5q0-17 8.5-31.5t23-23 31.5-8.5q26 0 44.5 18.5t18.5 44.5q0 9-2 17t-6 15-10 12.5-13 10-15 6.5-17 2z" />
<glyph unicode="&#xe11b;" glyph-name="faqiyouxi" d="M837 174h-42v105h42v-105zM795 342h42v-42h-42v42zM207 48v42h672v315h-315v-42h189v-231h-189v-42h-42v589h-378v-631h-127v42h85v631h462v-274h357v-357h84v-42h-798zM564 174h147v147h-147v-147zM291 657v-42h-42v42h42zM417 657v-42h-105v42h105zM291 111v84h84v-84h-84zM480 216h-294v378h294v-378zM438 552h-210v-294h210v294z" />
<glyph unicode="&#xe11c;" glyph-name="youxiguanli" d="M647-86h-271q-58 0-110 13.5t-96.5 41.5-76 69-49.5 98.5-18 127.5q0 86 27.5 156t75.5 115 111 68.5 136 23.5h81q8 0 13.5 5.5t5.5 13.5v194q0 2 2 4l2 4q2 2 5 3t7.5 2 9.5 1q28 0 28-21v-200q0-16-8-29.5t-21.5-21.5-29.5-8h-95q-126 0-211.5-90.5t-85.5-219.5q0-127 84.5-212t212.5-85h271q84 0 152 38.5t106.5 106.5 38.5 152q0 129-85 219.5t-212 90.5q-19 0-19 26 0 13 6.5 19.5t15.5 6.5q71 0 135.5-29.5t111-79 74-116 27.5-137.5q0-95-46.5-175.5t-127.5-127.5-177-47v0zM317 147q-48 0-82.5 34.5t-34.5 83 34.5 83 83 34.5 83-34.5 34.5-83-34.5-83-83.5-34.5zM317 331q-18 0-33-9t-24-24.5-9-33.5q0-27 19.5-46.5t47-19.5 47 19.5 19.5 47-19.5 47-47.5 19.5zM591 264q0-16 11-27 5-5 12.5-8t14.5-3q16 0 27.5 11t11.5 27-12 27q-2 3-5.5 5t-7 3.5-7 2.5-7.5 1q-16 0-27-11.5t-11-27.5zM712 264q0-16 12-27 3-4 7.5-6.5t9.5-3.5 10-1q16 0 27 11t11 27-11 27q-4 4-8 6.5t-9 4-10 1.5q-16 0-27.5-11.5t-11.5-27.5z" />
<glyph unicode="&#xe11d;" glyph-name="zhongjiangguanli" d="M967 488h-908q-23 0-39.5-16.5t-16.5-39.5v-507q0-23 16.5-39t39.5-16h908q22 0 38.5 16t16.5 39v507q0 15-7.5 28t-20 20.5-27.5 7.5zM59-39h429v-36h-429v36zM525-75v36h316q5 0 9 2.5t6.5 6.5 2.5 9q0 8-5 13.5t-13 5.5h-316v297q0 7-5.5 12.5t-13 5.5-13-5.5-5.5-12.5v-297h-429v434h429v-62q0-7 5.5-12.5t13.5-5.5q3 0 5.5 1t5 2.5 4 4 2.5 5 1 5.5v62h442v-434h-24q-7 0-12.5-5.5t-5.5-13.5 5.5-13 12.5-5h24v-36h-442zM193 621q25-21 99.5-44t123-33.5 90.5-18.5h13q42 8 90.5 18.5t123 33.5 99.5 44q49 41 54.5 104.5t-35.5 112.5q-46 55-118 55-56 0-99-36-47-40-121-224-75 184-122 224-21 17-46.5 26.5t-52.5 9.5q-71 0-118-55-41-49-35-112 1-9 2.5-17.5t4-17 6-16 8-15 9.5-14.5 11-13 13-12v0zM672 811q13 11 28.5 17t32.5 6q44 0 73-34 25-30 21.5-69.5t-33.5-64.5q-37-31-234-72 75 186 112 217v0zM219 800q29 34 73 34 17 0 32.5-6t28.5-16q38-32 112-218-197 41-234 72-15 12-23.5 29t-9.5 36q-4 39 21 69v0z" />
<glyph unicode="&#xe11e;" glyph-name="zhizuokaquan" d="M955 37h-885q-26 0-44.5 18.5t-18.5 44.5v190q39 0 67 27.5t28 67-28 67.5-67 28v189q0 27 18.5 45.5t44.5 18.5h885q27 0 45.5-18.5t18.5-45.5v-189q-26 0-48-13t-34.5-35-12.5-47q0-20 7.5-37.5t20-30 30-20 37.5-7.5v-190q0-26-18.5-44.5t-45.5-18.5v0zM972 240q-43 18-69 57.5t-26 86.5q0 24 7 46.5t19.5 41.5 30 33.5 38.5 23.5v100q0 57-52 57h-566v-64q0-7-4.5-11.5t-10.5-4.5h-16q-7 0-11.5 4.5t-4.5 11.5v64h-195q-58 0-58-64v-93q42-18 68.5-57.5t26.5-87-26.5-87-68.5-57.5v-93q0-19 6.5-33t19.5-22 30-8h197v63q0 3 1.5 6t3.5 5 5 3.5 6 1.5h16q6 0 11-4.5t5-11.5v-63h560q57 0 57 58v98zM339 226h-16q-4 0-8 2.5t-6 6-2 7.5v95q0 7 4.5 11.5t11.5 4.5h16q6 0 11-4.5t5-11.5v-95q0-3-1.5-6t-3.5-5-5-3.5-6-1.5zM339 416h-16q-4 0-8 2t-6 6-2 8v95q0 3 1.5 6t3.5 5 5 3.5 6 1.5h16q6 0 11-5t5-11v-95q0-7-5-11.5t-11-4.5zM475 461v19h60q-9 17-23 54h26l3-6q6-13 10-22.5t7.5-15.5 6.5-10h33q6 15 11.5 31t8.5 33h26q-8-34-19-64h51q16 22 30 52h28q-4-8-11.5-21t-19.5-31h66v-19h-151q-9-23-20-43h187v-19h-96q4-5 9-9l8-10q5-4 10-8.5t10-8.5 10-7l10-8q5-3 10.5-6.5t11.5-6.5l12-6q6-3 12-5l-15-23q-33 13-62 37 1-1 1.5-2.5t1-3.5 1-3.5 0.5-3.5v-42q0-56-53-56h-50l-7 21h50q15 0 22.5 8.5t7.5 25.5v30q0 22-22 22h-56q-7-39-33.5-68t-71.5-49l-24 14q87 42 101 103h-58v3q-25-19-58-35l-16 19q65 30 102 78h-93v19h107q1 2 4 9 1 1 2.5 3t2.5 4l2 4 4 6q1 2 2 5l4 6 2 6h-115zM586 399q-17-23-39-43h133q12 0 20-5-24 22-42 48h-72zM506 216l-25 15 1 1q86 41 101 101h-58v3q-24-19-57-34l-1-1-16 20q65 30 101 77h-92v20h107q0 1 4 9 3 4 5.5 9t6 11 7.5 14h-116v20h61q-9 16-23 53h27q1-1 3-6 8-18 13.5-30t9.5-17h32q13 29 21 63h27q-3-12-6-22.5t-7-21.5l-6-19h50q8 11 15.5 24t14.5 28h29l-1-1q-7-16-29-51h64v-20h-151q-8-23-19-43h186v-20h-95q42-48 102-74l-15-24q-32 13-60 36 1-2 1.5-3.5t0.5-3.5 0.5-4 0.5-4v-38q0-19-6-31.5t-18-19-30-6.5h-50l-7 23h50q29 0 29 33v30q0 21-21 21h-56q-7-38-33.5-67.5t-70.5-49.5h-1zM483 231l24-14q44 20 70 49.5t33 67.5h57q23 0 23-22v-30q0-11-3.5-19t-10.5-11.5-17-3.5h-49l7-21h49q6 0 12 1t11 3 9 4.5 8 5.5q13 14 13 42v38q0 5-1 9t-4 8l-1 3 2-3q14-12 29.5-21t32.5-16l14 22q-61 26-103 75v1h96v18h-187v1q12 20 20 43l1 1h150v17h-66l1 1q3 5 5.5 9t4.5 8 4.5 7 4 6.5 3.5 6.5 3.5 5.5 2.5 5 2 4.5h-26l-7-15q-4-7-8-13.5t-8-12.5-8-11h-51q10 30 18 63h-25q-7-33-20-63h-34q-7 10-23 48-2 4-3 5h-25q14-37 23-53h-61v-18h116v-1q-11-22-19-35-1-1-2-4-2-3-2-4v-1h-107v-17h93l-1-1q-36-48-101-78l15-18q34 16 58 34l1 1v-4h58q-5-20-18-38.5t-33.5-34.5-49.5-30v0zM704 349l-4 2q-8 4-20 4h-134l9 9q2 2 4 4.5t4 4.5l4 4q2 2 4 4.5t4 4.5 3.5 4.5 3.5 4.5 4 5h73q8-13 18.5-25t23.5-23zM549 356h131q10 0 18-3-12 11-22 22t-18 24h-71q-18-23-38-43v0z" />
<glyph unicode="&#xe11f;" glyph-name="kaquanguanli" d="M852 283h-120q-8 0-14.5-9t-6.5-18q0-5 3-11t7.5-10.5 10.5-4.5h120q8 0 14 8.5t6 17.5-6 18-14 9zM913 403v121q0 33-24 56.5t-57 23.5v161q0 33-23.5 56.5t-56.5 23.5h-402q-22 0-40.5-10.5t-29-29-10.5-40.5v-40h-161q-33 0-56.5-23.5t-23.5-57.5v-643q0-22 10.5-40.5t29-29 40.5-10.5h723q33 0 57 23.5t24 56.5v121q21 0 39.5 10.5t29.5 29 11 40.5v121q0 13-4 25t-11.5 22-17.5 17.5-22 11.5-25 4v0zM322 753q0 11 5.5 20t15 14.5 20.5 5.5h376q16 0 28-12t12-28v-149h-457v149zM81 631q0 17 12 28.5t28 11.5h149v-67h-189v27zM860 13q0-11-5.5-20t-14.5-14.5-20-5.5h-699q-16 0-28 12t-12 28v538h739q28 0 38-26 2-7 2-14v-108h-189q-22 0-40.5-10.5t-29-29-10.5-40.5v-121q0-33 23.5-56.5t56.5-23.5h189v-109zM940 215q0-17-11.5-28.5t-28.5-11.5h-215q-8 0-15.5 3t-13 8.5-8.5 13-3 15.5v95q0 16 11.5 28t28.5 12h215q11 0 20.5-5.5t14.5-15 5-19.5v-95z" />
<glyph unicode="&#xe120;" glyph-name="kaquanhexiao" d="M929-118h-835v1003l151-89 131 71 128-72 137 72 124-74 164 84v-995zM149-63h725v850l-112-57-122 74-137-72-128 72-131-72-95 56v-851zM122 107h136v-55h-136v55zM328 107h136v-55h-136v55zM537 107h135v-55h-135v55zM762 107h136v-55h-136v55z" />
<glyph unicode="&#xe121;" glyph-name="tuisonghongbao" d="M936 270q10 0 17.5 8.5t7.5 19.5v488q0 13-4 29-1 3-1 3.5t-0.5 3-1 3.5-0.5 2q-7 19-20 34t-30.5 23.5-37.5 8.5h-707q-26 0-49-15h-1l-2-3q-20-14-31.5-38t-11.5-51v-803q0-14 3.5-28t9.5-26 15-22 19.5-17 22.5-11 25-4h707q39 0 67 32t28 76v90q0 12-7.5 20t-17.5 8q-7 0-12.5-3.5t-9-10-3.5-14.5v-84q0-16-6.5-29t-18-20.5-25.5-7.5h-697q-21 0-35.5 16.5t-14.5 40.5v791q0 4 0.5 8.5t1.5 8 3 7.5l394-244 397 228q1-5 1-8v-482q0-11 7.5-19.5t17.5-8.5v0zM510 624l-336 213h687q4 0 7.5-1t7.5-2zM666 224v1q10 0 17.5 8t7.5 19.5-7.5 20-17.5 8.5h-115l112 149h-1q8 8 8.5 20t-5.5 20q-4 5-8.5 7.5t-9 2.5-9.5-1.5-9-5.5l-105-140-108 146q-8 8-18 7t-17-9.5-6.5-20.5 8.5-19v-1l118-154v-1h-119q-10 0-17.5-8.5t-7.5-20 7.5-19.5 17.5-8v-1h119v-57h-119q-10 0-17.5-8.5t-7.5-20 7.5-20 17.5-8.5h119v-66q0-12 7-20t17.5-8 18 8 7.5 20v66h115q10 0 17 8.5t7 20-7 20-17 8.5h-115v57h115z" />
<glyph unicode="&#xe122;" glyph-name="jishihongbao" d="M916 627q-6 10-18 13t-22-4q-7-4-10.5-11t-3-15 4.5-14q32-50 48.5-106.5t16.5-115.5q0-83-31-157.5t-89-133-133-89.5-157-31q-55 0-107 14t-98.5 41-85 65.5-65.5 85-41 98.5-14 107q0 121 66 222 7 10 4 22t-13 18.5-22 4-18-12.5q-18-28-32-59t-23.5-63-14.5-65-5-67q0-96 37-183 35-84 100-149t149-100q87-37 182.5-37t182.5 37q84 35 149 100t101 149q9 22 16 44.5t11.5 45 7 46 2.5 47.5q0 138-75 253v0zM857 691q-1 5-3 10t-6 9v0 1q-66 63-150.5 97t-175.5 34q-61 0-119-15t-110.5-44.5-96.5-71.5l-3-3q-2-2-5-8t-2-12q1-4 2-7t2.5-5.5 2.5-4 2-2.5h1q66-64 150-98t176-34q61 0 119 15t110 44.5 96 71.5l8 11 2 12zM555 325h-52l-80 138q-4 8-13.5 10.5t-17.5-2-10.5-14 2.5-17.5l66-115h-55q-4 0-8.5-2t-7.5-5-5-7.5-2-9 2-8.5 5-7 7.5-5 8.5-2h114v-68h-114q-6 0-11.5-3.5t-8.5-8.5-3-11.5 3-11.5 8.5-8 11.5-3h114v-91q0-10 7-16.5t16.5-6.5 16 6.5 6.5 16.5v91h114q9 0 16 6.5t7 16.5q0 4-2 8.5t-5 7.5-7 5-9 2h-114v68h114q9 0 16 6.5t7 16.5q0 4-2 8.5t-5 7.5-7 5-9 2h-61l66 115q5 8 2.5 17.5t-10.5 14-17 2-14-10.5zM784 690q-56-46-123-70.5t-139-24.5q-148 0-262 95 114 94 262 94t262-94v0z" />
<glyph unicode="&#xe123;" glyph-name="faqihixianchang" d="M795 638q27-60 20.5-123t-35-116.5-77.5-93.5-106-56q-5-1-14-3-44-12-67.5-17.5t-61.5-9.5-70-1q-27 3-62-26-9-7-16.5-13t-17-13-18-12.5-18.5-11-19-9.5q-4-2-11.5-6t-13-6.5-12.5-5.5-13-4.5-12.5-2-12 1-10.5 5.5q-7 6-10 13t-3.5 12.5 3 14.5 6 13.5 8.5 15.5 8 14q31 56-24 99-73 59-104 133t-9 157q24 87 88 142t161 82q29 7 68.5 11.5t91.5 5 105-10.5 102.5-30.5 91-58 64.5-90.5zM253 758q-74-23-123-75t-62-121q-25-136 102-225 1-1 4-3 9-6 14-9.5t13-10.5 11.5-12.5 7-13 3-16.5-4.5-18q-15-42-10.5-58t24-9 46.5 33q58 54 152 44 76-8 180 43 69 34 113.5 88t49.5 126q3 49-20.5 94.5t-58 76-77.5 53.5q-44 23-101 32.5t-109 6-90-10-64-15.5zM389 146q31 10 56.5 3.5t39.5-18.5 37-24.5 48-14.5q50-4 87-10t92.5-27.5 106.5-58.5q-13 10-13.5 38.5t13 61 35.5 49.5q55 41 68 115t-28 131q-4 5-12.5 12.5t-15 13.5-11.5 12.5-4.5 13 7.5 12.5q7 7 14.5 8t14.5-3.5 11.5-8.5 11.5-12.5 9-10.5q39-39 50.5-96.5t-7.5-113.5-64-91q-38-29-48.5-63t0.5-76q1-3 3.5-9t4-11 2-10-3-9.5-10.5-6.5q-8-3-18.5-4t-20 0.5-12.5 5.5q-21 24-47.5 41.5t-52.5 26-57 15-57.5 10-58 10-56.5 15.5q-71 25-114 84v0z" />
<glyph unicode="&#xe124;" glyph-name="guanlihixianchang" d="M349 863h-182q-27 0-52-11t-43.5-29-29-43-10.5-52v-182q0-36 18-66.5t49-48 68-17.5h313v314q0 56-38.5 95.5t-92.5 39.5v0zM414 480h-247q-28 0-48 19.5t-20 46.5v182q0 28 20 48t48 20h182q27 0 46-20t19-48v-248zM859 863h-182q-55 0-95-40t-40-95v-314h317q55 0 93 38.5t38 93.5v182q0 36-17 67t-47.5 49.5-66.5 18.5v0zM924 546q0-27-19-46.5t-46-19.5h-251v248q0 14 5.5 26.5t15 21.5 22 14.5 26.5 5.5h182q27 0 46-20t19-48v-182zM32 218v-182q0-55 39.5-93.5t95.5-38.5h182q55 0 93 38.5t38 93.5v316h-313q-56 0-95.5-39.5t-39.5-94.5v0zM414 36q0-18-8.5-33t-23.5-23.5-33-8.5h-182q-28 0-48 19t-20 46v182q0 27 20 47.5t48 20.5h247v-250zM859 352h-317v-316q0-55 40-93.5t95-38.5h182q55 0 93 38.5t38 93.5v182q0 36-17 67t-47.5 49-66.5 18v0zM924 36q0-18-8.5-33t-23.5-23.5-33-8.5h-182q-28 0-48.5 19t-20.5 46v250h251q27 0 46-20t19-48v-182z" />
<glyph unicode="&#xe125;" glyph-name="yiqixiu" d="M761 754h-499v72q0 5 3.5 9t9.5 4h473q6 0 9.5-4t3.5-9v-72zM764 156h-499l-3 545h499zM761-59q0-13-13-13h-473q-3 0-5.5 1t-4 3-2.5 4.5-1 4.5v162h499v-162zM761 891h-499q-21 0-36-14.5t-15-35.5v-913q0-21 15-35.5t36-14.5h499q22 0 36.5 14.5t14.5 35.5v913q0 21-14.5 35.5t-36.5 14.5v0zM455 47h113v-57h-113v57z" />
<glyph unicode="&#xe126;" glyph-name="zhizuotuwen" d="M843-123h-795q-10 0-16.5 6.5t-6.5 16.5v874q0 9 6.5 16t16.5 7h619q4 0 7.5-1t6-3.5 4.5-5.5 3.5-8 1.5-11q0-29-23-29h-587v-805h731v656q0 7 2.5 11.5t9.5 8 17 3.5q9 0 15.5-3t10-8.5 3.5-11.5v-693q-2-8-9.5-14t-16.5-6v0zM438 450h-270q-22 0-22 28 0 9 3 15.5t8 10 11 3.5h270q10 0 16.5-7t6.5-22q0-28-23-28zM670 220h-504q-5 0-9 2t-7 5.5-5 9-2 12.5q0 13 6.5 21t16.5 8h504q22 0 22-29 0-14-6-21.5t-16-7.5zM542 438q-9 9-11.5 20t3.5 16l418 411q6 5 18 2.5t20-10.5q3-4 6-10t3-11.5-4-9.5l-418-411q-4-6-15.5-6t-19.5 9z" />
<glyph unicode="&#xe127;" glyph-name="tuwenguanli" d="M914 21q0-17-7-33t-18.5-27.5-27.5-18.5-33-7h-681q-35 0-60 25.5t-25 60.5v725q0 35 25 60t60 25h652q23 0 45-9t37.5-26.5 16.5-38.5l32 12 19 18q-13 28-35.5 49.5t-52 33.5-62.5 12h-623q-45 0-83-22t-60-60-22-83v-667q0-69 48.5-117.5t116.5-48.5h623q45 0 83 22.5t60.5 60.5 22.5 83v479l-51-80v-428zM195 614h80v-51h-80v51zM736 589v25h-405v-51h365zM195 423h80v-51h-80v51zM585 423h-254v-51h174zM195 232h80v-51h-80v51zM331 232v-51h63v51h-63zM668 232l-80-51h148v51h-68zM971 729l-520-520v-44l41 12 520 520z" />
<glyph unicode="&#xe128;" glyph-name="tuisongtuwen" d="M899 891h-780q-21 0-41-8.5t-34-23-22.5-34-8.5-41.5v-809q0-44 31-75t75-31h780q44 0 75 31t31 75v809q0 44-31 75.5t-75 31.5v0zM947-43q0-30-29-30h-817q-30 0-30 30v846q0 29 30 29h136q85 0 264-0.5t298 0.5h125q3 0 5.5-0.5t4.5-1.5 4-2.5 3.5-3.5 2.5-4.5 1.5-5 1-5.5 0.5-6v-846zM348 394q54 0 93 39t39 94q0 36-17.5 66.5t-48 48-66.5 17.5-66.5-17.5-48.5-48-18-66.5q0-55 39-94t94-39zM348 606q21 0 39.5-10.5t29-29 10.5-40-10.5-39.5-29-29-39.5-11q-16 0-31 6.5t-25.5 17-17 25.5-6.5 31q0 33 23.5 56t56.5 23zM801 424h-263q2 0 2-6t-1-14-1-10v-29h263v59zM538 482h263v58h-263v-29q0-2 1.5-10t1.5-13.5-3-5.5v0zM801 599v58h-263v-58h263zM248 70v3h-1q1 1 1-3zM248 70v-2q0-2 1-2zM801 132l-553 2v-61h553q5 0 2-2l4-3v66q0 3-2-1-3-4-4-1v0zM803 71l-2 2q1-2 2-2zM247 219h554v59h-554l1-49q0-3-1.5-5.5t-2-3 2.5-1.5v0z" />
<glyph unicode="&#xe129;" glyph-name="weimingpianzhizuo" d="M897 445q-6 0-12.5-2.5t-11-7-7-10.5-2.5-13v-176q0-13 10-23t23.5-10 23 10 9.5 23v176q0 14-9.5 23.5t-23.5 9.5zM897 139q-13 0-23-9.5t-10-23.5v-176q0-13 10-23t23-10q9 0 17 4.5t12 12 4 16.5v176q0 9-4 16.5t-12 12-17 4.5v0zM881 872h-740q-39 0-66.5-28t-27.5-66v-787q0-39 27.5-66.5t66.5-27.5h564q38 0 65.5 27.5t27.5 66.5v433q0 38 28.5 66t63.5 28q23 0 43 12.5t31 34 11 47.5v166q0 25-12.5 46.5t-34 34.5-47.5 13zM909 612q0-12-6-20t-13-8q-63 0-110.5-47.5t-47.5-112.5v-433q0-5-2-10t-6-9-9-6-10-2h-564q-7 0-13.5 3.5t-10.5 10-4 13.5v787q0 11 8.5 19t19.5 8h740q12 0 20-8t8-19v-166zM590 274l-74 27h-1l-6 3-9 6q-2 1-4.5 2.5t-4.5 3.5h-1l-2 2q23 17 37 46.5t14 64.5q0 54-31 92.5t-75 38.5-75-38.5-31-92.5q0-23 6-44.5t17.5-38 26.5-28.5l-5-6-5-4q-2-2-5-4-2 0-5-1l-81-29q-9-3-15.5-9.5t-10.5-15.5-4-18v-8q0-8 2.5-14.5t7.5-11 11.5-7.5 13.5-3h303q10 0 18 5t13 13 5 18v8q0 14-9 26.5t-21 16.5v0z" />
<glyph unicode="&#xe12a;" glyph-name="zengjiaqudaoma" d="M1003 377q0-14-9.5-21t-24.5-7h-916q-9 0-17 3t-12.5 9.5-4.5 15.5q0 10 5 16.5t12.5 9.5 17.5 3h912q10 0 18-3t13.5-9.5 5.5-16.5v0zM505 876q13 0 20.5-10t7.5-25v-916q0-15-7-24t-21-9-21.5 9.5-7.5 24.5v916q0 10 3 17.5t9.5 12 16.5 4.5v0z" />
<glyph unicode="&#xe12b;" glyph-name="yemiandingyi" d="M488-85q-65 0-121 9t-95 30-39 50q0 22 22 39.5t59.5 28 82 16 91.5 5.5q65 0 121.5-9t95.5-30 39-50q0-13-8-24t-21.5-20-32.5-16.5-41.5-12.5-48-9-51.5-5.5-53-1.5zM488 50q-35 0-67-3.5t-53.5-8.5-37.5-11.5-23.5-12-7.5-10 7.5-10.5 23.5-12 37.5-11.5 53.5-9 67-3.5q58 0 103.5 9t65.5 19 20 18-20 18-65.5 19-103.5 9zM964 200h-904q-4 0-8.5 2.5t-6.5 6.5-2 9v618q0 8 5 13t12 5h904q3 0 6.5-1.5t6-4 3.5-5.5 1-7v-618q0-7-5-12.5t-12-5.5v0zM90 248h844v559h-844v-559zM845 723h-666q-2 0-4.5 1t-4.5 2-3.5 2.5-2.5 3.5-2 4.5-1 4.5q0 7 5.5 12.5t12.5 5.5h666q7 0 12.5-5.5t5.5-12.5-5.5-12.5-12.5-5.5zM845 533h-286q-4 0-8.5 2.5t-6.5 6.5-2 9q0 4 1 7t3.5 5.5 6 4 6.5 1.5h286q7 0 12.5-5.5t5.5-12.5-5.5-12.5-12.5-5.5zM845 438h-286q-7 0-12 5t-5 12.5 5 13 12 5.5h286q7 0 12.5-5.5t5.5-13-5.5-12.5-12.5-5zM845 343h-286q-3 0-6.5 1.5t-6 4-3.5 5.5-1 6.5 1 7 3.5 6 6 4 6.5 1.5h286q7 0 12.5-5.5t5.5-12.5q0-4-1.5-7t-4-5.5-6-4-6.5-1.5zM155 319q-7 0-12 5.5t-5 12.5v95q0 7 5 12.5t12 5.5q5 0 9-2.5t6.5-6.5 2.5-9v-95q0-7-5-12.5t-13-5.5zM251 319q-8 0-13 5.5t-5 12.5v190q0 8 5 13t12.5 5 12.5-5 5-13v-190q0-5-2-9t-6.5-6.5-8.5-2.5v0zM346 319q-8 0-13 5.5t-5 12.5v285q0 8 5 13t12.5 5 12.5-5 5-13v-285q0-7-5-12.5t-12-5.5v0zM441 319q-8 0-13 5.5t-5 12.5v190q0 4 1.5 7t3.5 5.5 5.5 4 7.5 1.5q7 0 12.5-5t5.5-13v-190q0-18-18-18v0zM495-14q-8 0-16.5 5.5t-8.5 12.5v190q0 7 8.5 12.5t16.5 5.5q3 0 7.5-1.5t8-3.5 5.5-5.5 2-7.5v-190q0-18-23-18z" />
<glyph unicode="&#xe12c;" glyph-name="guanliqudaoma" d="M261 479q-26 0-47.5-13t-34-34.5-12.5-47.5q0-39 27.5-66.5t66.5-27.5q25 0 47 12.5t34.5 34.5 12.5 47q0 39-27.5 67t-66.5 28zM259 328q-23 0-39.5 16.5t-16.5 39.5q0 16 7.5 28.5t20.5 20 28 7.5 28-7.5 20.5-20 7.5-28.5q0-23-16.5-39.5t-39.5-16.5zM512 479q-39 0-66.5-28t-27.5-67 27.5-66.5 66.5-27.5 67 27.5 28 66.5q0 20-7.5 37t-20.5 30-30.5 20.5-36.5 7.5zM512 328q-23 0-39.5 16.5t-16.5 40 16.5 39.5 39.5 16 39.5-16 16.5-39.5-16.5-40-39.5-16.5zM512 887q-102 0-195-39.5t-160.5-107-107.5-160.5-40-195.5 40-195.5 107.5-160.5 160.5-107 195.5-39.5 195.5 39.5 160 107 107 160.5 40 195q0 82-25.5 159t-72 138.5-108 108-138.5 72-159 25.5zM512-59q-90 0-172 35t-141.5 94.5-94.5 141.5-35 172.5 35 172.5 94.5 141 141.5 94.5 172 35.5 172.5-35.5 141.5-94.5 94-141 35-172.5-35-172.5-94-141.5-141.5-94.5-172.5-35zM764 479q-26 0-47.5-13t-34.5-34.5-13-47.5q0-39 28-66.5t67-27.5 66.5 27.5 27.5 66.5-27.5 67-66.5 28zM766 328q-15 0-28 7.5t-20.5 20.5-7.5 28.5 7.5 28 20.5 20 28 7.5q24 0 40-16t16-40q0-15-7.5-28t-20-20.5-28.5-7.5z" />
<glyph unicode="&#xe12d;" glyph-name="kaquanyingxiao" d="M425 130h-89q-8 0-15.5-1t-13.5-3.5-10.5-5.5-7-8-2.5-12q0-28 49-28h89q23 0 36.5 6.5t13.5 21.5q0 30-50 30zM1007 24v797q1 26-18.5 44.5t-47.5 18.5h-259q-8 0-15.5-1.5t-14-5-12.5-8-10.5-10-8-12.5-4.5-14q-8-36-37.5-58.5t-67.5-22.5q-25 0-47 10t-37 28.5-20 42.5q-3 14-12.5 26t-23.5 18.5-29 6.5h-260q-27 0-46.5-18.5t-19.5-44.5v-873q0-27 19.5-45t46.5-18h858q28 0 47.5 18t19.5 45v76h-1zM909-57h-784q-28 0-39 10.5t-11 37.5v82q1 0 3-0.5t3-0.5h98q49 0 49 28 0 30-49 30h-101l-3-1v664q0 13 10 23t24 10l209-1q10 0 18.5-6t12.5-15q9-25 25-46t37.5-36.5 47.5-24.5 53-9q55 0 100.5 33t63.5 83q3 10 11.5 16t19.5 6h209q5 0 9-1.5t7.5-3.5 7-5 5.5-6.5 3-8 1-8.5v-664l-3 1h-104q-49 0-49-30 0-28 49-28h98q1 0 2.5 0.5t3.5 1 3 0.5v-72q0-29-8.5-44t-31.5-15zM679 130h-89q-23 0-36-7t-13-23q0-28 49-28h89q49 0 49 28-1 30-49 30zM537 216h1v114h108l8 1v1q20 6 20 26 0 12-8.5 20t-19.5 8h-108v43h116v1q20 7 20 27 0 11-8.5 19.5t-19.5 8.5h-108v23l118 116v1q3 6 4 13 0 5-2 10.5t-5 9.5q-8 8-19.5 9t-20.5-7l-102-101-109 106q-2 3-5.5 4.5t-7 2-7 0.5-7-1-6.5-3-6-5q-14-15-3-33v-1l122-120v-24h-116v-2q-8-2-13.5-9.5t-5.5-16.5q0-20 19-27v-1h116v-43h-116v-1q-19-6-19-27 0-6 2.5-11.5t7-9 9.5-5.5v-2h116v-114h2q6-20 26-20t27 20v0z" />
<glyph unicode="&#xe600;" glyph-name="daichuliyuyue" d="M511-112q-101 0-192.5 39.5t-158.5 106-106.5 158.5-39.5 193 39.5 193 106.5 158.5 158.5 106 192.5 39.5 193-39.5 158.5-106 106-158.5 39.5-193q0-81-25-156.5t-71.5-136.5-107.5-107.5-136.5-71.5-156.5-25zM511 830q-90 0-172.5-35.5t-142-95-95-142-35.5-172.5 35.5-172.5 95-142.5 142-95 172.5-35 172.5 35 142.5 95 95 142.5 35 172.5-35 172.5-95 142-142.5 95-172.5 35.5zM744 310h-286q-9 0-16 4t-11 11-4 16v308q0 9 3 16t9 11 15 4q27 0 27-31v-285h263q15 0 23-6.5t8-20.5q0-12-8.5-19.5t-22.5-7.5v0z" />
<glyph unicode="&#xe601;" glyph-name="shousuo" d="M512 824q-90 0-171-35t-140-94-94-140-35-171q0-51 11.5-100.5t33-93 52-81.5 68.5-68.5 81.5-52 93-33 100.5-11.5q90 0 171 35t140 94 94 140 35 171-35 171-94 140-140 94-171 35zM512-15q-108 0-200 53.5t-145.5 145.5-53.5 200q0 54 14.5 106t40 95.5 62.5 80.5 80.5 62.5 95.5 40 106 14.5q108 0 200-53.5t145.5-145.5 53.5-200q0-156-106-271-103-112-254-126-20-2-39-2zM194 404h636v-40h-636v40z" />
<glyph unicode="&#xe602;" glyph-name="zhankai2" d="M512 824q-90 0-171-35t-140-94-94-140-35-171q0-51 11.5-100.5t33-93 52-81.5 68.5-68.5 81.5-52 93-33 100.5-11.5q90 0 171 35t140 94 94 140 35 171-35 171-94 140-140 94-171 35zM512-15q-108 0-200 53.5t-145.5 145.5-53.5 200q0 54 14.5 106t40 95.5 62.5 80.5 80.5 62.5 95.5 40 106 14.5q108 0 200-53.5t145.5-145.5 53.5-200q0-156-106-271-103-112-254-126-20-2-39-2zM194 404h636v-40h-636v40zM492 702h40v-636h-40v636z" />
<glyph unicode="&#xe603;" glyph-name="pwd" d="M806 441l-509 1q0 186 51 261 51 74 164 74 66 0 122.5-42.5t81.5-107.5q1-3 3.5-10t4-10.5 3.5-8.5 4-8 5-6.5 6.5-5 7.5-2.5q20-3 28 18.5t-1 40.5q-73 193-265 193-67 0-109-17t-81-60q-19-22-33-49.5t-21.5-54.5-13-56.5-6.5-55.5-1.5-51 0.5-42l-29-1q-19 0-33-14t-14-34v-405q0-20 14-34t33-14h588q19 0 33 14t14 34v405q0 20-14 34t-33 14v0zM803 30q0-17-11-28t-27-11h-506q-16 0-27 11-6 6-8.5 13t-2.5 15v322q0 6 1 11t3.5 9 6 7.5 8 6 9.5 4 10 1.5h506q16 0 27-11.5t11-27.5v-322z" />
<glyph unicode="&#xe604;" glyph-name="user" d="M504-73h-51q-21 0-64 4t-73.5 10.5-69 20.5-62.5 33.5-41 50.5-17 70q0 42 37 77t91.5 57 121.5 33q-22 19-39.5 42.5t-28.5 50-18.5 53-11.5 57-5 56.5-1 56q0 57 16 102.5t46.5 76.5 74.5 47.5 99 16.5h8q111 0 174-64.5t63-178.5q0-47-4-85.5t-14-82.5-32-82-55-65q49-8 93-23t79.5-35.5 56.5-49 21-59.5q0-189-394-189v0zM508 781q-82 0-122-41.5t-40-126.5v-81q0-14 1-39t3.5-39 8-34 13-33.5 19-27 26.5-23.5q21-13 21-39v-38q0-11-5-21.5t-14.5-17-21.5-7.5q-51-5-91-17.5t-65-28.5-38-34-13-36q0-110 314-110 155 0 242.5 29t87.5 81q0 37-54.5 71.5t-152.5 44.5q-18 2-29.5 15t-11.5 31v38q0 26 21 39 15 10 26.5 23.5t19.5 27 13 33.5 7.5 34 3.5 39 1 39v81q0 168-162 168h-8z" />
<glyph unicode="&#xe605;" glyph-name="pushpin" d="M687 232l248 248-27 9q-69 21-142.5 16.5t-139.5-34.5q-44 35-269 229 11 66-19 112l-11 18-260-260 16-12q5-3 11.5-6.5t27.5-8.5 46-5q13 0 27 1 196-226 229-269-61-138-17-283l8-27 248 248 270-270 24 24z" />
<glyph unicode="&#xe606;" glyph-name="chuanboshuju" d="M178 527q-20 0-34-14t-14-34v-477q0-20 14-34t34-14 33.5 14 13.5 34v477q0 10-3.5 19t-10 15.5-15.5 10-18 3.5zM400.5 400q-19.5 0-33.5-14t-14-34v-350q0-13 6.5-24t17.5-17 24-6q19 0 33 13.5t14 33.5v350q0 20-14 34t-33.5 14zM623 814q-13 0-24-6.5t-17-17.5-6-24v-764q0-10 3.5-18.5t10-15 15.5-10 18-3.5q20 0 34 13.5t14 33.5v764q0 13-6.5 24t-17.5 17.5-24 6.5zM846 623q-20 0-33.5-14t-13.5-34v-573q0-20 14-33.5t33.5-13.5 33.5 13.5 14 33.5v573q0 10-4 18.5t-10 15-15 10.5-19 4z" />
<glyph unicode="&#xe607;" glyph-name="shangchengshuju" d="M420 98q-40 0-68.5-28.5t-28.5-68.5q0-9 2-18.5t5.5-18.5 9-17 12.5-14q28-29 68-29t68.5 28.5 28.5 68.5q0 19-7.5 37t-21.5 31q-28 29-68 29zM782 98q-41 0-69-28.5t-28-68.5 28-68q14-14 32-21.5t37-7.5q40 0 68 29 6 6 11.5 14t9 17 5.5 18.5 2 18.5q0 40-28 68-29 28-68 29zM281 674l-29 126q-3 5-6 9.5t-8 9-11 6.5l-130 38q-13 3-26.5-5t-20.5-20q-3-17 3.5-30.5t22.5-16.5l109-29 126-580q3-14 12.5-22t25.5-8h512q11 0 19.5 5t13.5 14 5 19q0 16-11 27t-27 11h-483l-17 72h534q13 0 21 8t8 21l51 269z" />
<glyph unicode="&#xe608;" glyph-name="yingxiaohuodong" d="M936 574q-31 69-91 116t-127.5 66.5-141 25-129.5 0.5-94-16q-54-14-97.5-36t-79.5-52-62-71-39-90q-25-93 9.5-175.5t116.5-147.5q61-49 26-111-2-3-9-15t-9.5-17-6-15.5-3-16.5 3.5-14 11-14q7-6 16-7.5t20.5 2 19 6.5 21 10 18.5 9q43 19 99 66 39 32 69 28 38-3 85.5 3t69.5 12l82 20q64 17 118.5 62t86.5 105 39.5 130-22.5 137z" />
<glyph unicode="&#xe609;" glyph-name="yonghushuju" d="M472 252h6q3 0 14.5 1t23.5 4.5 28.5 12.5 32 22 32.5 35 31.5 50.5 28 70 22.5 91.5q15 79-5 143.5t-76 104-138 39.5q-85 0-142-39.5t-77.5-104-5.5-143.5q42-222 162-275 35-15 63-12zM959 150q-3 15-11.5 27.5t-21.5 20.5q-7 4-15.5 6.5t-18.5 3.5q-15 1-28-7-7-3-13-7t-11-9q-12-11-23-24-13 15-28 26-3 2-6.5 4.5t-6.5 4.5q-7 4-15 7-3 1-7 2l-8 2q-8 1-16-1-16-3-28.5-11t-21-20-12.5-27q-4-16-4-32 1-17 7-32t15-28 19-24 18-19q14-14 27-25t26-20q12-8 22-13t17-5q6 0 17 5 5 3 11 6t12 7q13 9 28 21 14 11 27 25 9 9 17.5 20t15.5 24 12 28q2 7 3.5 15t2.5 16q1 17-2 33zM598 179v16q-59 6-124 6-116 0-196-16t-133-39q-41-18-61.5-44.5t-20.5-79.5v-80h691q-46 20-81.5 55t-55 82-19.5 100z" />
<glyph unicode="&#xe60a;" glyph-name="close" d="M894 626l-139 139-243-242-243 242-139-139 243-242-243-242 139-139 243 242 243-242 139 139-243 242z" />
<glyph unicode="&#xe60b;" glyph-name="pen" d="M128 0h226l-226 226v-226zM670 768l-451-452 225-225 452 451z" />
<glyph unicode="&#xe60c;" glyph-name="fenxiang" d="M763 503q54 0 92.5 38.5t38.5 93.5q0 26-10.5 50.5t-28 42-42 28-50.5 10.5q-55 0-93.5-38.5t-38.5-92.5v-4q0-2 0.5-4t0.5-4 0.5-3.5 0.5-3.5l-276-106q-5 5-11 10t-12 9-13 7.5-14 6-14.5 4.5-15.5 3-16 1q-54 0-92.5-38.5t-38.5-92.5 38.5-92.5 92.5-38.5q42 0 76 24l187-125q-6-13-9-26.5t-3-28.5q0-54 38.5-92.5t93-38.5 93 38.5 38.5 93-38.5 93-93.5 38.5q-26 0-49.5-10t-41.5-28l-181 121q22 33 22 72 0 25-10 49l265 102q9-15 21-27.5t26.5-21.5 32-14 35.5-5z" />
<glyph unicode="&#xe60d;" glyph-name="yonghu" d="M716 269q-3 0-6.5-1.5t-5.5-4-3.5-5.5-1.5-6q0-7 5-12t12-5q48 0 88.5-20t66-51 39.5-66.5 14-67.5q0-14-3.5-23.5t-9.5-13.5-12-5.5-14-1.5h-746q-8 0-13.5 1.5t-12 5.5-10 13.5-3.5 23.5q0 33 14 68t39.5 66 66 51 88.5 20q7 0 12 5t5 12-5 12-12 5q-56 0-103.5-23.5t-77-59.5-46-77-16.5-79 19.5-58.5 54.5-20.5h746q35 0 54.5 21t19.5 58q0 30-10 62.5t-31 64-49 56.5-68 40.5-85 15.5zM512.5 281q100.5 0 172 78.5t71.5 189.5-71.5 189.5-172 78.5-172-78.5-71.5-189.5 71.5-189.5 172-78.5zM512 782q87 0 148-68t61-164.5-61-165-147.5-68.5-147.5 68.5-61 164.5q0 48 16.5 91t44.5 74 66.5 49.5 80.5 18.5z" />
<glyph unicode="&#xe60e;" glyph-name="tuichu" d="M772 245q-7 0-12-5t-5-12v-103q0-16-2.5-18t-21.5-2h-482q-2 0-5.5 0.5t-4.5 1.5-3 2-2.5 3.5-1 5.5-0.5 7v515q0 11 4 16t9 6 19 1h467q18 0 21-3t3-20v-100q3-14 17-14 6 0 10.5 4t5.5 10h1v117q0 17-12.5 29t-29.5 12h-507q-17 0-29-12t-12-29v-546q0-8 3-16t8.5-13.5 13.5-8.5 16-3h507q17 0 29.5 12t12.5 29v117q0 7-5 12t-12 5zM824 391q-2 3-4 5l-164 164q-3 3-7.5 4t-8.5 0-7-4q-12-12-1-23l135-136h-337q-7 0-12-5t-5-11q0-4 1.5-7t3.5-5.5 5-3.5 7-1h338l-136-137q-11-11 1-22.5t23-0.5l162 162h1q1 1 1 2l2 2q1 1 2 3 1 3 1 6v2q0 1-0.5 3t-0.5 3z" />
<glyph unicode="&#xe60f;" glyph-name="up" d="M512 418l253-253q9-9 21.5-14t24.5-5 24.5 5 21.5 14l23 23q19 19 19 46t-19 46l-298 298q0 1-1 2l-23 23q-4 5-10 8.5t-11.5 5.5-12 3.5-12.5 1.5-12.5-1.5-12.5-3.5-11.5-5.5-9.5-8.5l-23-23q-1 0-1-1v-1l-298-298q-19-19-19-46t19-46l23-23q19-19 46-19t46 19z" />
<glyph unicode="&#xe610;" glyph-name="down" d="M512 350l-253 253q-19 19-46 19t-46-19l-23-23q-19-19-19-46t19-46l298-298q0-1 1-2l23-23q19-19 46-19t46 19l23 23q1 0 1 1v1l298 298q19 19 19 46t-19 46l-23 23q-19 19-46 19t-46-19z" />
<glyph unicode="&#xe611;" glyph-name="right" d="M546 384l-253-253q-9-9-14-21.5t-5-24.5 5-24.5 14-21.5l23-23q19-19 46-19t46 19l298 298q1 0 2 1l23 23q5 4 8.5 9.5t5.5 11.5 3.5 12.5 1.5 12.5q0 27-19 46l-23 23q0 1-1 1h-1l-298 298q-12 13-29 17.5t-33.5 0-29.5-17.5l-23-23q-19-19-19-46t19-46z" />
<glyph unicode="&#xe612;" glyph-name="left" d="M478 384l253 253q19 19 19 46t-19 46l-23 23q-7 6-14.5 10.5t-15.5 6.5-16.5 2-16.5-2-15.5-6.5-13.5-10.5l-298-298q-1 0-2-1l-23-23q-5-4-8.5-9.5t-5.5-11.5-3.5-12.5-1.5-12.5q0-27 19-46l24-24h1l298-298q19-19 46-19t46 19l23 23q19 19 19 46t-19 46z" />
<glyph unicode="&#xe613;" glyph-name="lineleft" d="M404 384l300 300-43 43-342-343 343-343 43 43z" />
<glyph unicode="&#xe614;" glyph-name="lineright" d="M362 727l-43-43 301-300-300-300 43-43 342 343z" />
<glyph unicode="&#xe615;" glyph-name="linedown" d="M812 577l-300-301-300 300-43-43 343-342 343 343z" />
<glyph unicode="&#xe616;" glyph-name="lineup" d="M512 577l-343-343 43-43 300 301 300-300 43 43z" />
<glyph unicode="&#xe617;" glyph-name="minus" d="M126 445h772v-122h-772v122z" />
<glyph unicode="&#xe618;" glyph-name="plus" d="M126 445h772v-122h-772v122zM451 770h122v-772h-122v772z" />
<glyph unicode="&#xe619;" glyph-name="new" d="M475 512q-25 0-43.5-18.5t-23.5-48.5h124q0 32-15 49.5t-42 17.5zM930 626h-836q-37 0-62.5-25.5t-25.5-62.5v-220q0-18 7-34.5t18.5-28 28-18.5 34.5-7l-44-88q162 88 181 88h699q11 0 20.5 2.5t18.5 6.5 16.5 10 13.5 14 10.5 16.5 6.5 18.5 2 20v220q0 14-4.5 27.5t-12.5 24.5-18.5 19-24 12.5-28.5 4.5zM310 303h-42v135q0 73-53 73-28 0-46-20.5t-18-52.5v-135h-42v237h42v-39h1q27 45 78 45 39 0 59.5-25t20.5-73v-145zM575 411h-167q1-38 21-59t55-21q40 0 74 26v-38q-32-22-84-22-51 0-80 32.5t-29 90.5q0 55 31.5 90.5t78.5 35.5 73.5-30 26.5-84v-21zM862 303h-43l-48 166q-1 4-1.5 7.5t-1 7.5-1.5 8q-1-3-1.5-6.5t-1.5-7.5l-2-8-52-167h-42l-71 237h43l48-176q2-8 3-22h2q0 4 0.5 8t1.5 7.5 2 7.5l51 175h39l50-176q2-8 3-22h2q0 3 0.5 6.5t1.5 7.5l2 8 47 176h40zM475 512q-25 0-43.5-18.5t-23.5-48.5h124q0 32-15 49.5t-42 17.5z" />
<glyph unicode="&#xe61a;" glyph-name="cir-close" d="M512 812q-87 0-166-34t-136.5-91.5-91.5-136.5-34-166q0-116 57.5-214.5t156-156 214.5-57.5q87 0 166 34t136.5 91.5 91.5 136.5 34 166q0 116-57.5 214.5t-156 156-214.5 57.5zM783 182l-69-69-202 201-202-201-69 69 201 202-201 202 69 69 202-201 202 201 69-69-201-202z" />
<glyph unicode="&#xe61b;" glyph-name="cir-prompt" d="M512 808q-86 0-164.5-33.5t-135.5-90.5-90.5-135.5-33.5-164.5q0-115 56.5-213t154.5-154.5 213-56.5q86 0 164.5 33.5t135.5 90.5 90.5 135.5 33.5 164.5q0 115-56.5 213t-154.5 154.5-213 56.5zM564 46h-108v111h108v-111zM542 276h-60l-26 446h112z" />
<glyph unicode="&#xe61c;" glyph-name="ok" d="M479 497q-22 0-38-16.5t-20-43.5h109q0 10-1.5 18t-4.5 14.5-7 11.5q-14 16-38 16zM512 827q-52 0-101.5-11.5t-93-33.5-82-52.5-69-69-52.5-82-33.5-93-11.5-101.5q0-90 35-172t94.5-141.5 141.5-94.5 172-35q72 0 139.5 22.5t122 63.5 95.5 95.5 63.5 122 22.5 139.5q0 90-35 172t-94.5 141.5-141.5 94.5-172 35zM428 114l-257 267 70 67 189-197 356 342 67-70z" />
<glyph unicode="&#xe61d;" glyph-name="check" d="M132 415l78 75 286-298-78-74zM418 118l-75 77 474 455 75-77z" />
<glyph unicode="&#xe61e;" glyph-name="suo" d="M586.228 258.213c0 40.996-33.233 74.228-74.228 74.228s-74.228-33.233-74.228-74.228c0-33.564 22.283-61.913 52.86-71.093v-56.775c0-11.803 9.567-21.369 21.369-21.369s21.368 9.567 21.368 21.369v56.775c30.578 9.18 52.861 37.528 52.861 71.093zM107.251 430.173v-467.697c0-50.073 38.192-90.664 85.304-90.664h638.892c47.109 0 85.303 40.59 85.303 90.664v467.697h-809.498zM881.937-11.931c0-47.665-30.613-80.247-75.46-80.247h-588.958c-44.846 0-75.46 32.582-75.46 80.247v405.082h739.876v-405.082zM228.713 582.068c0 161.046 118.047 276.079 281.812 276.079s281.816-115.034 281.816-276.079v-144.374h38.070v148.354c0 171.286-143.219 310.14-319.882 310.14-176.667 0-319.881-138.854-319.881-310.14v-148.354h38.068v144.374z" />
<glyph unicode="&#xe61f;" glyph-name="xinfeng" d="M883.156-15.267h-770.172c-62.3 0-112.984 50.687-112.984 112.99v572.558c0 62.302 50.686 112.99 112.984 112.99h770.172c35.099 0 58.91-10.431 70.767-31.005 12.624-21.898 8.061-46.472-12.519-67.418l-12.531-12.76c-0.050-0.050-0.665-0.677-1.822-1.854-0.114-0.117-0.227-0.232-0.338-0.344l-34.119-34.735c-0.028-0.028-0.055-0.055-0.082-0.083-30.075-30.618-77.363-78.758-136.377-138.838l-140.609-143.146c-29.203-29.732-58.405-59.46-87.609-89.188l-7.555-7.695c-3.701-3.771-8.762-5.895-14.045-5.895-0.009 0-0.018 0-0.026 0-5.293 0.008-10.358 2.145-14.054 5.932l-391.789 401.324c-7.592 7.777-7.442 20.235 0.335 27.827s20.235 7.443 27.827-0.335l377.75-386.945c27.034 27.518 54.062 55.032 81.088 82.549l325.879 331.761c11.427 11.631 8.098 17.406 6.497 20.18-4.139 7.184-17.505 11.303-36.669 11.303h-770.172c-40.6 0-73.628-33.031-73.628-73.632v-572.558c0-40.601 33.028-73.632 73.628-73.632h770.172c40.601 0 73.632 33.031 73.632 73.632v496.429c-0.017 3.485 0.268 52.739 28.079 97.234 5.76 9.215 17.901 12.018 27.116 6.256s12.017-17.9 6.256-27.116c-21.978-35.163-22.099-75.785-22.098-76.191 0.001-0.061 0.001-0.064 0.001-0.126v-496.485c0.001-62.303-50.686-112.99-112.989-112.99z" />
<glyph unicode="&#xe620;" glyph-name="shangzhuang" horiz-adv-x="976" d="M975.27 772.671v-777.183c0-68.291-55.63-123.693-124.422-123.693h-795.012c-68.678 0-55.425 55.402-55.425 123.807v777.069c0 68.245 55.744 123.671 124.422 123.671h795.126c68.678 0 55.425-55.425 55.311-123.671zM915.905-19.040v806.216c0 27.667-22.635 50.256-50.575 50.256h-755.117c-27.804 0-50.552-22.475-50.552-50.256v-806.216c0-27.667 22.748-50.256 50.552-50.256h755.254c27.804 0 50.552 22.498 50.552 50.256h-0.114zM813.708 307.773c-20.449 0-22.316 16.395-22.316 36.73v251.713l-274.189-337.197c-6.922-6.877-16.486-10.794-26.324-10.68-9.905 0.114-19.242 4.144-26.187 11.135l-158.807 176.295-156.894-262.165c-7.15-7.218-16.623-10.771-26.073-10.771-9.473 0-5.67 3.552-12.934 10.771-14.437 14.346-9.701 31.060 4.714 45.406l167.050 264.42c6.922 6.877 16.281 10.771 26.073 10.771h0.25c9.928-0.114 19.264-4.122 26.187-11.135l154.913-162.609 255.152 296.709h-227.28c-20.403 0-36.935 9.131-36.935 29.42 0 20.335 16.532 29.466 36.935 29.466h333.599v-331.549c0-20.335-16.509-36.73-36.935-36.73z" />
<glyph unicode="&#xe621;" glyph-name="quan2" horiz-adv-x="1023" d="M422.126 123.215h-92.188c-28.466 0-50.699-7.419-50.699-29.861 0.163-22.442 22.349-28.722 50.699-28.722h92.188c28.466 0 50.652 6.279 50.652 28.722s-22.187 29.861-50.652 29.861zM1023.256 15.445v815.832c0.116 35.512-30.605 64.443-68.257 64.443h-268.076c-32.443 0-60.676-22.14-67.188-52.606-10.372-48.141-55.722-83.048-108.002-83.048-52.21 0-97.77 34.908-107.979 82.979-6.582 30.536-34.768 52.769-67.211 52.769h-267.774c-37.745 0-68.467-29.024-68.467-64.42v-865.624c0-0.256 0.14-0.395 0.14-0.605v-28.349c0-35.629 30.745-64.467 68.467-64.467h886.020c37.722 0 68.443 28.838 68.443 64.467v78.025c0 0.186-0.116 0.349-0.116 0.605zM921.277-67.952h-809.553c-37.908 0-51.094 11.861-51.094 49.303v33.559c0 0.209-0.116 0.442-0.116 0.628v50.071c2.116-0.233 3.93-0.977 6.14-0.977h100.584c28.466 0 50.769 6.233 50.629 28.722 0 22.442-22.163 30.35-50.629 30.35h-100.584c-2.209 0-4.023-0.791-6.14-1v679.434c0 18.768 15.465 34.094 34.443 33.978l216.261-0.698c14.163 0 26.954-8.744 31.698-21.861 24.628-66.629 92.188-118.282 168.818-118.282 76.723 0 144.375 51.49 168.771 118.91 4.814 13.14 17.721 21.931 32.001 21.931h216.307c18.931 0 34.326-15.233 34.326-34.024v-679.667c-3.326 0.512-6.442 1.558-9.977 1.558h-100.491c-28.466 0-50.652-8.186-50.652-30.629 0-22.489 22.187-28.722 50.652-28.722h100.491c3.535 0 6.651 1.047 9.977 1.558v-73.56c-0.581-34.512-6.326-60.583-41.861-60.583zM683.55 123.215h-91.956c-28.512 0-50.652-7.419-50.652-29.861s22.14-28.722 50.652-28.722h91.956c28.28 0 50.652 6.279 50.652 28.722-0.116 22.442-22.28 29.861-50.652 29.861zM536.989 211.426h1.442v117.468h111.305l8.698 0.163v1.372c11.582 3.698 19.977 14.396 19.977 27.117 0 15.675-12.884 28.443-28.675 28.443h-111.305v43.815h111.305l8.721 0.163v1.372c11.558 3.675 19.954 14.419 19.954 27.117 0 15.698-12.884 28.419-28.675 28.419h-111.305v24.187l116.375 113.072 5.582 5.675-0.558 0.651c2.419 3.861 3.791 8.326 4.163 13.024 0.465 7.605-2.14 14.931-7.256 20.675-10 11.256-28.582 12.814-40.815 2.116l-105.7-103.398-111.933 108.909c-11.396 10.023-30.489 8.93-40.489-2.372-8.628-9.605-9.442-23.466-2.93-33.931l-0.628-0.767 126.677-122.77v-25.070l-120.003-0.070v-1.349c-11.582-3.721-19.977-14.442-19.977-27.117 0-12.628 8.396-23.396 19.977-27.094v-1.442h120.003v-43.815l-120.003-0.093v-1.326c-11.582-3.651-19.977-14.442-19.977-27.094 0-12.675 8.396-23.442 19.977-27.14v-1.442h120.003v-108.84l0.070-8.628h1.349c3.721-11.442 14.605-19.745 27.326-19.745 12.791 0 23.605 8.326 27.326 19.745v0 0z" />
<glyph unicode="&#xe622;" glyph-name="fenxiang2" horiz-adv-x="887" d="M739.92 164.682c-41.119 0-87.313-33.701-114.096-60.666l-343.086 208.077c10.445 20.093 12.675 47.65 12.675 71.771 0 14.382-7.327 38.138-11.218 51.223l351.846 214.676c26.169-23.347 64.239-46.467 102.104-46.467 81.374 0 147.547 65.65 147.547 146.364s-66.173 146.364-147.547 146.364c-81.397 0-147.547-65.65-147.547-146.364 0-16.634 6.622-40.164 11.765-55.114l-346.84-213.265c-26.67 26.078-67.402 48.993-107.679 48.993-81.374 0-147.547-65.65-147.547-146.364s66.173-146.364 147.547-146.364c29.582 0 77.392 13.426 100.511 28.353l354.099-201.614c-3.527-12.516-10.126-32.336-10.126-45.921 0-80.714 66.173-146.364 147.547-146.364 81.351 0 147.547 65.65 147.547 146.364s-66.105 146.318-147.502 146.318v0 0zM738.167 842.934c51.883 0 94.049-41.825 94.049-93.275s-42.166-93.298-94.049-93.298c-51.883 0-94.049 41.847-94.049 93.298s42.166 93.275 94.049 93.275v0 0zM54.955 383.863c0 50.859 41.688 92.206 92.956 92.206s92.979-41.347 92.979-92.206c0-50.859-41.711-92.206-92.979-92.206s-92.956 41.347-92.956 92.206v0 0zM739.92-78.416c-53.794 0-97.53 43.395-97.53 96.757 0 53.339 43.736 96.734 97.53 96.734 53.771 0 97.508-43.395 97.508-96.734 0-53.362-43.736-96.757-97.508-96.757v0 0z" />
<glyph unicode="&#xe623;" glyph-name="huabi" horiz-adv-x="1025" d="M1010.546 710.001l-172.469 172.469c-18.585 18.585-48.813 18.585-67.398 0l-678.132-678.207c-2.942-3.194-5.155-7.016-6.413-11.216l-84.902-284.28c-3.018-10.085-0.251-20.999 7.167-28.468 7.444-7.419 18.358-10.16 28.443-7.167l284.305 84.902c4.2 1.257 8.022 3.471 11.216 6.413l0.025-0.025 678.157 678.182c18.585 18.585 18.585 48.813 0 67.398v0zM176.719 207.532l527.944 527.919 158.914-158.889-527.969-527.919-158.889 158.889zM963.291 676.302l-59.275-59.25-158.889 158.889 59.25 59.25 158.914-158.889zM71.246-56.83l64.959 217.435 152.501-152.501-217.46-64.934z" />
<glyph unicode="&#xe624;" glyph-name="sousuo2" horiz-adv-x="1018" d="M1002.721-119.981c-13.26-13.237-41.84-9.55-55.1 3.71l-207.38 208.816c-2.944 2.944-5.745 5.96-8.449 9-77.337-63.334-176.096-101.44-283.616-101.44-247.138 0-448.199 200.965-448.199 447.984 0 246.994 201.061 447.96 448.199 447.96 247.114 0 448.175-200.965 448.175-447.96 0-111.206-40.978-212.838-108.31-291.228l203.67-205.082c26.497-26.473 37.507-45.263 11.010-71.76zM448.175 838.458c-215.375 0-390.585-175.115-390.585-390.37s175.21-390.394 390.585-390.394c102.086 0 194.862 39.662 264.515 104.001 2.274 4.5 5.29 8.928 10.125 13.093 2.92 2.489 5.936 4.308 9.024 5.745 66.087 69.965 106.921 163.985 106.921 267.555 0 215.255-175.234 390.37-390.585 390.37z" />
<glyph unicode="&#xe625;" glyph-name="yonghu1" d="M772.016 199.978c-39.228 39.229-85.763 68.498-136.531 86.546 26.775 13.284 51.501 30.977 73.254 52.73 52.552 52.551 81.494 122.422 81.494 196.741s-28.941 144.19-81.494 196.742c-52.551 52.551-122.422 81.493-196.741 81.493s-144.19-28.942-196.742-81.493c-52.552-52.551-81.494-122.422-81.494-196.742s28.941-144.19 81.494-196.741c21.753-21.753 46.481-39.446 73.256-52.73-50.769-18.049-97.303-47.317-136.533-86.546-66.188-66.187-104.010-153.166-107.423-246.208h48.731c3.387 80.029 36.14 154.783 93.129 211.77 55.771 55.771 128.558 88.327 206.651 92.867 6.274-0.419 12.583-0.646 18.929-0.646s12.656 0.227 18.929 0.646c78.092-4.54 150.88-37.096 206.651-92.867 56.988-56.987 89.742-131.741 93.129-211.77h48.731c-3.411 93.042-41.233 180.021-107.422 246.208zM282.467 535.996c0 126.565 102.968 229.534 229.534 229.534s229.534-102.969 229.534-229.534c0-120.305-93.040-219.28-210.942-228.775-6.171 0.305-12.37 0.46-18.591 0.46-6.223 0-12.421-0.156-18.592-0.46-117.902 9.495-210.941 108.47-210.941 228.775z" />
<glyph unicode="&#xe626;" glyph-name="xiaolian" d="M506.283 92.075c1.003 0 2.069 0.043 3.115 0.043 170.261 2.005 238.528 150.869 239.189 152.341l-474.475 0.235c2.837-6.293 71.957-152.619 232.171-152.619zM326.805 417.493c27.029 0 48.789 21.867 48.789 48.811s-21.781 48.789-48.789 48.789c-26.923 0.043-48.747-21.824-48.747-48.789 0-26.923 21.781-48.811 48.747-48.811zM648.939 466.283c0-26.957 21.853-48.811 48.811-48.811s48.811 21.853 48.811 48.811c0 0 0 0 0 0 0 26.957-21.853 48.811-48.811 48.811s-48.811-21.853-48.811-48.811c0 0 0 0 0 0zM512 896c-282.304 0-512-229.696-512-512 0-282.325 229.696-512 512-512 282.325 0 512 229.675 512 512 0 282.304-229.675 512-512 512zM512-85.099c-258.667 0-469.12 210.432-469.12 469.099s210.453 469.12 469.12 469.12 469.077-210.453 469.077-469.12-210.411-469.099-469.077-469.099z" />
<glyph unicode="&#xe627;" glyph-name="jianpan" d="M347.377 251.313h345.986v-62.906h-345.986v62.906zM426.010 408.579h62.907v-62.906h-62.907v62.906zM300.198 408.579h62.907v-62.906h-62.907v62.906zM551.824 408.579h62.906v-62.906h-62.906v62.906zM677.637 408.579h62.906v-62.906h-62.906v62.906zM709.090 550.119h62.906v-62.907h-62.906v62.907zM268.745 550.119h62.906v-62.907h-62.906v62.907zM567.551 550.119h62.906v-62.907h-62.906v62.907zM410.284 550.119h62.907v-62.907h-62.907v62.907zM511.777-61.703c-60.107 0-118.426 11.775-173.335 35.001-53.028 22.429-100.648 54.534-141.538 95.424s-72.996 88.51-95.425 141.538c-23.225 54.91-35 113.229-35 173.336s11.776 118.426 35 173.335c22.429 53.028 54.535 100.648 95.425 141.539s88.51 72.996 141.538 95.425c54.91 23.225 113.228 35 173.335 35s118.427-11.776 173.336-35c53.028-22.429 100.649-54.535 141.539-95.425s72.995-88.51 95.424-141.539c23.226-54.91 35.001-113.228 35.001-173.335s-11.775-118.426-35.001-173.336c-22.429-53.028-54.534-100.648-95.424-141.538s-88.511-72.995-141.539-95.424c-54.909-23.226-113.228-35.001-173.336-35.001zM511.777 794.879c-226.782 0-411.283-184.501-411.283-411.284s184.501-411.283 411.283-411.283c226.783 0 411.284 184.501 411.284 411.283s-184.5 411.284-411.284 411.284z" />
<glyph unicode="&#xe628;" glyph-name="link2" d="M481.736 562.558c-13.207-13.207-35.143-13.207-48.777 0-13.111 13.373-13.111 35.113 0 48.517l145.35 145.646c43.483 42.926 100.499 64.6 157.090 64.6 122.434 0 220.905-99.058 220.905-221.722 0-56.591-21.446-113.672-64.372-156.599l-158.429-158.495c-42.958-41.944-99.092-62.932-155.194-62.932-78.494 0-150.221 41.681-189.748 107.755v0.293c-9.741 15.855-17.065 32.922-22.46 49.955-5.328 18.080 4.969 37.368 22.918 42.729 18.634 5.33 37.63-4.87 42.894-23.179 3.497-11.966 8.793-23.702 15.137-34.654 27.363-45.868 77.612-74.67 131.259-74.67 39.070 0 77.581 14.679 107.267 43.48l158.132 158.235c29.719 29.815 44.397 69.079 44.397 108.082 0 84.871-67.903 152.708-152.707 152.708-39.068 0-78.495-14.679-107.852-44.397h-0.458l-145.352-145.352zM538.785 186.92v0l-145.351-145.581c-58.977-59.074-157.579-59.305-216.523-0.229v0 0.229c-59.075 59.011-59.075 157.316 0 216.262l156.5 157.12c29.848 29.229 68.817 44.168 108.343 44.168s78.495-14.94 108.311-44.168v-0.456c9.253-9.022 16.577-19.093 22.918-29.815 6.766-10.724 11.639-22.428 15.137-34.1 5.328-18.536 24.388-28.802 42.337-23.439 18.079 5.36 28.835 24.387 23.505 42.695-5.427 17.555-12.781 34.392-21.445 49.987-9.841 15.627-20.989 30.273-33.674 43.449-43.48 42.957-100.039 64.599-157.089 64.599-57.017 0-113.607-21.642-157.088-64.599l-156.566-156.861c-85.361-85.59-85.361-227.802 0-313.85l2.387-1.765c85.818-83.628 225.449-82.909 310.809 1.242v0.523l0.457 0.458 145.811 145.352c13.206 13.631 13.206 35.111-0.458 48.776-13.208 13.208-35.112 13.208-48.321 0v0z" />
<glyph unicode="&#xe629;" glyph-name="shanchu" d="M623.077 147.077c-17.598 0-31.821 14.223-31.821 31.821v350.076c0 17.598 14.223 31.827 31.821 31.827s31.827-14.229 31.827-31.827v-350.075c0.001-17.599-14.228-31.822-31.827-31.822v0zM432.132 147.077c-17.604 0-31.827 14.223-31.827 31.821v350.076c0 17.598 14.223 31.827 31.827 31.827 17.598 0 31.821-14.229 31.821-31.827v-350.075c0-17.599-14.223-31.822-31.821-31.822v0zM941.325 688.098h-159.124v63.649c0 52.64-42.486 95.475-94.742 95.475h-318.982c-52.634 0-95.469-42.836-95.469-95.475v-63.649h-159.124c-17.604 0-31.827-14.223-31.827-31.827 0-17.598 14.223-31.821 31.827-31.821h827.441c17.598 0 31.827 14.223 31.827 31.821 0.001 17.604-14.228 31.827-31.827 31.827v0zM336.656 751.747c0 17.536 14.286 31.827 31.821 31.827h318.982c17.444 0 31.094-13.972 31.094-31.827v-63.649h-381.897v63.649zM750.506-43.874h-445.614c-52.635 0-95.47 42.836-95.47 95.475v477.848c0 17.569 14.258 31.826 31.823 31.826 17.569 0 31.826-14.257 31.826-31.826v-477.848c0-17.569 14.287-31.827 31.823-31.827h445.613c17.565 0 31.823 14.258 31.823 31.827v476.547c0 17.565 14.228 31.823 31.826 31.823s31.827-14.258 31.827-31.823v-476.547c0-52.64-42.841-95.475-95.475-95.475v0z" />
<glyph unicode="&#xe62a;" glyph-name="shengyin" d="M308.736 384c0 51.23-42.104 92.732-94.118 92.732s-94.118-41.502-94.118-92.732 42.104-92.732 94.088-92.732c52.013 0 94.148 41.502 94.148 92.732v0zM497.001 384c0 89.269-42.827 168.508-109.207 219.437l-38.46-48.791c51.561-39.605 84.902-101.195 84.902-170.647s-33.31-131.042-84.902-170.707l38.46-48.73c66.379 50.929 109.207 130.168 109.207 219.437v0zM685.267 384c0 148.751-71.349 280.847-181.971 365.658l-38.46-48.73c95.804-73.547 157.726-187.994 157.726-316.928s-61.922-243.381-157.726-316.928l38.46-48.73c110.562 84.811 181.971 216.907 181.971 365.658v0zM873.532 384c0 208.294-99.96 393.186-254.795 512l-39.484-49.965c139.776-107.249 230.008-274.101 230.008-462.035s-90.232-354.786-229.918-462.035l39.454-49.965c154.805 118.814 254.735 303.706 254.735 512v0z" />
<glyph unicode="&#xe62b;" glyph-name="shipin2" d="M791.224 419.471l-432.087 249.467v-569.876l493.517 284.928-61.43 35.482zM400.097 170.015v427.981l370.647-213.996-370.647-213.985zM512 896c-282.767 0-512-229.233-512-512 0-282.757 229.233-512 512-512 282.778 0 512 229.243 512 512 0 282.767-229.222 512-512 512zM512-87.040c-259.727 0-471.040 211.313-471.040 471.040 0 259.738 211.313 471.040 471.040 471.040 259.738 0 471.040-211.302 471.040-471.040 0-259.727-211.302-471.040-471.040-471.040z" />
<glyph unicode="&#xe62c;" glyph-name="upload" d="M820.864 502.671h-114.339v-47.614h114.339c26.295 0 47.614-21.319 47.614-47.611v-338.623c0-26.294-21.32-47.612-47.614-47.612h-618.973c-26.295 0-47.613 21.319-47.613 47.612v338.623c0 26.293 21.319 47.611 47.613 47.611h114.34v47.614h-114.34c-52.589 0-95.226-42.639-95.226-95.226v-338.623c0-52.588 42.638-95.228 95.226-95.228h618.972c52.591 0 95.229 42.64 95.229 95.228v338.623c0.001 52.587-42.637 95.226-95.228 95.226zM354.96 587.227l132.612 132.633v-445.699c0-13.158 10.646-23.808 23.807-23.808 13.159 0 23.806 10.65 23.806 23.808v442.954l129.612-129.864c4.67-4.672 10.764-6.998 16.855-6.998s12.182 2.325 16.833 6.95c9.299 9.301 9.299 24.366 0.023 33.665l-171.6 171.948c-4.441 4.487-10.531 6.997-16.832 6.997-0.023 0-0.023 0-0.023 0-6.299 0-12.344-2.51-16.81-6.975l-171.969-171.947c-9.301-9.299-9.301-24.365 0-33.665 9.321-9.299 24.386-9.299 33.685 0z" />
<glyph unicode="&#xe62d;" glyph-name="bianji2" d="M865.415-91.885h-696.21c-64.080 0-116.035 51.982-116.035 116.097v696.66c0 64.123 52.716 121.611 116.803 121.611h467.187v-58.397h-467.18c-32.044 0-58.785-31.145-58.785-63.205v-696.66c0-32.054 25.974-58.043 58.010-58.043h696.21c32.018 0 63.734 26.698 63.734 58.733v467.18h58.397v-467.187c0.006-64.123-58.054-116.785-122.133-116.785zM518.645 189.445c-8.476-8.484-19.097-12.743-30.055-14.883l-254.013-125.642c-28.588-13.257-51.486 12.364-40.954 40.971l125.572 254.201c2.13 10.958 6.371 21.58 14.866 30.066l451.254 451.582c22.66 22.65 59.387 22.65 82.046 0l102.549-102.628c22.66-22.66 22.66-59.44 0-82.1l-451.263-451.564zM249.195 125.021c-6.637-13.397 6.177-27.131 20.46-20.494l156.863 95.003-82.382 82.445-94.94-156.953zM395.586 312.595l61.535-61.579c11.321-11.338-17.939 17.957 20.511-20.502l328.193 328.39-103.291 101.893-327.461-327.655c10.907-10.922 9.191-9.21 20.511-20.547zM908.383 702.57l-61.535 61.579c-11.321 11.356-29.694 11.356-41.025 0l-60.068-60.094 101.083-104.105 61.535 61.588c11.347 11.338 11.347 29.711 0.006 41.031z" />
<glyph unicode="&#xe62e;" glyph-name="mulu" d="M40.421 675.16h943.158c22.339 0 40.421 18.082 40.421 40.421 0 22.312-18.082 40.421-40.421 40.421h-943.158c-22.339 0-40.421-18.109-40.421-40.421 0-22.339 18.082-40.421 40.421-40.421zM983.579 405.686h-943.158c-22.339 0-40.421-18.109-40.421-40.421s18.082-40.421 40.421-40.421h943.158c22.339 0 40.421 18.109 40.421 40.421s-18.082 40.421-40.421 40.421zM983.579 55.37h-943.158c-22.339 0-40.421-18.109-40.421-40.421s18.082-40.421 40.421-40.421h943.158c22.339 0 40.421 18.109 40.421 40.421s-18.082 40.421-40.421 40.421z" />
<glyph unicode="&#xe900;" glyph-name="shoucang" d="M1023.998 504.189l-353.218 53.9-158.782 337.91-158.779-337.91-353.218-53.9 255.533-261.622-60.502-370.566 316.969 175.031 316.97-175.031-60.503 370.566 255.533 261.622zM511.998 121.28l-237.718-133.279 45.375 268.936-204.656 208.914 276.84 36.004 120.159 256.144 119.095-256.144 275.905-39.136-202.657-206.784 42.376-268.935-234.719 134.28z" />
<glyph unicode="&#xe901;" glyph-name="zuojiantou" d="M0.001 463.661c148.752 112.899 297.624 225.616 446.537 338.333 0.079-71.755-0.022-143.489 0.039-215.224 40.684-0.685 81.325-4.55 121.323-12.063 96.709-17.24 190.3-58.524 263.426-124.882 85.894-76.848 141.077-183.322 168.75-294.207 14.136-57.012 22.839-115.476 23.924-174.239v-12.386c-13.695-0.988-27.369-2.054-41.063-2.98-4.492 38.647-16.818 76.024-33.13 111.206-32.245 69.581-85.533 128.727-150 169.972-56.655 36.814-121.102 60.376-186.978 74.392-54.618 11.58-110.465 17.038-166.272 17.883 0-71.393 0.040-142.763-0.019-214.155-148.853 112.798-297.744 225.512-446.536 338.35zM68.275 463.702c112.278-85.227 224.698-170.272 337.057-255.4 0.041 57.779-0.021 115.556 0.019 173.335 32.667-0.926 65.373-0.585 97.961-3.423 100.013-7.028 200.589-29.625 288.924-78.379 67.286-36.954 126.014-90.040 167.339-154.908-0.221 2.156-0.523 4.27-0.887 6.384-18.285 69.62-47.427 136.924-89.822 195.305-48.576 67.606-116.085 121.518-193.039 153.337-64.304 27.752-134.171 40.478-203.793 44.789-22.256 0.724-44.491 1.227-66.724 2.133 0.061 57.417 0 114.813 0.021 172.208-112.359-85.107-224.678-170.274-337.057-255.381z" />
<glyph unicode="&#xe902;" glyph-name="shoucang1" d="M1023.999 504.189l-353.219 53.901-158.783 337.91-158.78-337.91-353.219-53.901 255.534-261.622-60.502-370.567 316.968 175.032 316.969-175.032-60.502 370.567z" />
<glyph unicode="&#xe903;" glyph-name="zuojiantou1" d="M0.001 463.661c148.752 112.899 297.623 225.617 446.538 338.334 0.077-71.755-0.025-143.489 0.037-215.224 40.684-0.684 81.325-4.55 121.324-12.063 96.709-17.24 190.3-58.524 263.427-124.882 85.896-76.847 141.078-183.321 168.751-294.208 14.136-57.012 22.839-115.476 23.924-174.24v-12.386c-13.695-0.988-27.368-2.054-41.062-2.98-4.493 38.647-16.818 76.023-33.13 111.206-32.245 69.581-85.532 128.727-150 169.972-56.655 36.812-121.104 60.374-186.978 74.392-54.618 11.58-110.465 17.037-166.273 17.882 0-71.392 0.040-142.764-0.019-214.155-148.854 112.801-297.746 225.515-446.537 338.353z" />
<glyph unicode="&#xe904;" glyph-name="pinpai" d="M512 100.38c-214.122 0-388.345 174.204-388.345 388.327 0 214.126 174.223 388.347 388.345 388.347s388.328-174.222 388.328-388.347c0-214.124-174.204-388.327-388.328-388.327zM512 836.519c-191.79 0-347.81-156.020-347.81-347.811 0-191.773 156.020-347.792 347.81-347.792 191.773 0 347.792 156.019 347.792 347.792 0.001 191.791-156.019 347.811-347.792 347.811zM856.499-109.054l-186.32 186.3c-7.908 7.909-7.908 20.754 0 28.661 7.93 7.891 20.735 7.891 28.661 0l117.122-117.139v110.197h110.216l-103.443 103.426c-7.908 7.908-7.908 20.754 0 28.661 7.93 7.892 20.735 7.892 28.661 0l172.603-172.62h-167.502v-167.485zM167.503-109.054v167.484h-167.502l172.584 172.62c7.93 7.892 20.732 7.892 28.661 0 7.91-7.908 7.91-20.754 0-28.661l-103.422-103.426h110.217v-110.197l117.102 117.141c7.93 7.891 20.733 7.891 28.663 0 7.91-7.908 7.91-20.752 0-28.661l-186.301-186.3zM357.768 275.476v403.571h178.894c35.994 0 63.334-3.667 82.021-10.907 18.706-7.22 33.65-20.025 44.91-38.339 11.186-18.407 16.732-38.711 16.732-60.877 0-28.661-9.195-52.707-27.808-72.362-18.517-19.636-47.16-32.124-85.888-37.483 14.179-6.775 24.899-13.438 32.231-20.1 15.598-14.274 30.358-32.218 44.353-53.637l70.183-109.864h-67.169l-53.376 84.013c-15.598 24.138-28.459 42.75-38.621 55.535-10.069 12.86-19.074 21.887-27.058 26.95-8.005 5.174-16.064 8.746-24.325 10.813-6.124 1.228-15.97 1.88-29.779 1.88h-61.937v-179.192l-53.361-0.002zM411.129 500.898h114.813c24.345 0 43.512 2.532 57.229 7.612 13.811 5.081 24.253 13.158 31.38 24.251 7.148 11.074 10.72 23.097 10.72 36.163 0 19.076-6.868 34.767-20.771 47.069-13.811 12.32-35.698 18.425-65.68 18.425h-127.693v-133.519z" />
<glyph unicode="&#xe905;" glyph-name="mendianguanli" d="M0 886.591v-194.428c0-76.478 61.997-138.477 138.476-138.477 55.049 0 102.183 32.37 124.509 78.888 22.323-46.518 69.459-78.888 124.508-78.888 55.046 0 102.183 32.367 124.508 78.887 22.324-46.52 69.46-78.887 124.507-78.887s102.183 32.37 124.509 78.888c22.323-46.518 69.459-78.888 124.507-78.888 76.479 0 138.476 62 138.476 138.477v194.428h-1023.999zM976.649 692.163c0-50.33-40.801-91.127-91.13-91.127s-91.13 40.798-91.13 91.127h-66.757c0-50.33-40.801-91.127-91.13-91.127s-91.13 40.798-91.13 91.127h-66.756c0-50.33-40.801-91.127-91.13-91.127s-91.13 40.798-91.13 91.127h-66.759c0-50.33-40.801-91.127-91.13-91.127s-91.127 40.798-91.127 91.127l-0.152 142.218h929.677l-0.221-142.218zM957.637 498.446c-12.631 0-22.854-10.244-22.854-22.854v-457.066c0-50.482-40.931-91.412-91.412-91.412h-662.746c-50.482 0-91.412 40.931-91.412 91.412v457.067c0 0-0.578 22.954-22.467 22.954s-23.24-22.954-23.24-22.954v-457.066c0-75.747 61.394-137.12 137.12-137.12h662.746c75.746 0 137.12 61.371 137.12 137.12v457.066c-0.001 12.609-10.224 22.853-22.855 22.853z" />
<glyph unicode="&#xe906;" glyph-name="kehuguanli" d="M819.011-30.324c-3.346 55.669-25.433 99.289-67.534 133.332-35.203 28.471-79.613 46.001-118.788 61.468-47.859 18.895-89.363 35.285-101.885 64.023-1.95 23.196-1.786 41.198-1.601 61.919 0.020 3.151 0.051 6.353 0.072 9.627 10.191 10.181 18.895 25.422 24.992 37.954 5.542 11.382 14.584 32.392 19.142 56.274 6.671 3.428 12.799 8.57 17.971 15.169 10.202 13.014 16.832 31.745 19.705 55.669 2.679 22.302-3.807 39.473-12.758 50.773 5.737 19.491 13.856 52.189 16.822 89.189 4.156 51.83-3.366 93.603-22.354 124.177-17.591 28.317-44.235 46.144-79.284 53.082-19.336 24.427-56.357 37.739-105.754 37.739-0.123 0-0.247 0-0.38-0.010-75.344-1.375-130.479-24.406-163.887-68.426-39.586-52.158-46.945-131.197-21.923-235.073-9.237-11.3-16.041-28.707-13.301-51.45 2.873-23.924 9.504-42.655 19.695-55.669 5.193-6.62 11.342-11.772 18.032-15.2 7.010-35.419 26.336-75.323 45.159-94.125 0.020-3.223 0.041-6.384 0.072-9.483 0.175-20.793 0.339-38.857-1.622-62.135-12.521-28.727-54.201-45.118-102.254-64.023-39.319-15.467-83.893-32.987-119.23-61.458-42.265-34.044-64.434-77.664-67.779-133.332-0.339-5.655 1.673-11.187 5.542-15.313 3.879-4.115 9.288-6.445 14.943-6.445h777.69c5.666 0 11.064 2.33 14.943 6.445 3.879 4.126 5.891 9.658 5.552 15.302zM43.938-11.019c6.25 33.469 22.435 59.907 49.942 82.067 30.441 24.53 70.119 40.13 108.495 55.227 56.069 22.046 109.028 42.881 126.651 90.257 0.636 1.714 1.037 3.499 1.201 5.317 2.412 26.736 2.238 47.335 2.053 69.134-0.051 6.056-0.102 12.316-0.102 18.854 0 7.533-4.126 14.451-10.726 18.032-7.821 5.521-32.586 45.6-36.702 84.181-1.047 9.812-8.919 17.489-18.741 18.289-2.607 0.216-13.127 7.564-16.986 39.668-1.981 16.453 6.035 22.272 6.086 22.302 7.718 4.711 11.444 13.927 9.175 22.682-12.060 46.39-17.396 87.649-15.867 122.638 1.612 37.020 10.951 67.030 27.773 89.189 25.392 33.459 69.719 51.020 131.752 52.199 38.303-0.031 66.61-9.606 75.734-25.628 3.151-5.532 8.693-9.298 15.005-10.171 27.332-3.797 46.709-15.457 59.24-35.634 31.427-50.589 13.24-144.037-2.463-191.28-3.018-9.083 0.596-19.018 8.775-23.986 0.082-0.061 8.067-5.85 6.096-22.313-3.859-32.104-14.38-39.453-16.986-39.668-9.822-0.8-17.694-8.478-18.741-18.279-4.146-38.786-28.111-78.731-35.675-84.211-6.568-3.603-10.664-10.499-10.664-18.012 0-6.61-0.061-12.932-0.113-19.049-0.195-21.748-0.38-42.275 2.032-68.939 0.164-1.816 0.565-3.603 1.201-5.317 17.612-47.355 70.376-68.19 126.229-90.236 38.211-15.088 77.735-30.688 108.054-55.207 27.403-22.169 43.517-48.608 49.747-82.107h-731.473zM1018.111 65.156c-3.879-4.115-9.278-6.445-14.933-6.445h-125.901c-11.331 0-20.527 9.186-20.527 20.527 0 11.331 9.196 20.527 20.527 20.527h102.48c-5.594 25.607-18.587 46.082-39.955 63.356-25.135 20.332-58.183 33.377-90.154 45.98-47.725 18.834-92.812 36.63-108.156 77.858-0.647 1.714-1.047 3.51-1.212 5.327-2.032 22.631-1.879 39.996-1.714 58.379 0.041 5.152 0.092 10.479 0.092 16.041 0 7.421 4.003 14.245 10.428 17.879 6.886 5.562 25.381 38.18 28.645 68.539 1.037 9.699 8.765 17.314 18.464 18.238 1.868 0.688 8.867 7.554 11.638 30.595 1.334 11.115-3.336 15.323-3.818 15.734-8.047 5.009-11.618 14.882-8.632 23.894 13.045 39.268 28.234 116.797 2.422 158.344-10.017 16.124-25.587 25.453-47.592 28.522-6.312 0.873-11.854 4.639-15.005 10.181-6.979 12.265-30.318 19.891-60.934 19.921-12.244-0.236-23.79-1.242-34.332-2.997-11.177-1.857-21.758 5.696-23.616 16.883-1.857 11.177 5.696 21.758 16.883 23.616 12.562 2.094 26.192 3.285 40.5 3.54 0.123 0.010 0.247 0.010 0.369 0.010 42.018 0 73.763-11.3 90.873-32.063 29.846-6.178 52.611-21.615 67.728-45.949 35.45-57.065 15.723-145.063 5.44-180.708 7.502-10.11 12.727-24.92 10.479-43.825-2.504-20.762-8.324-37.072-17.314-48.504-4.301-5.48-9.34-9.832-14.841-12.911-5.819-28.019-20.527-61.417-36.774-78.443-0.010-2.34-0.031-4.639-0.051-6.897-0.153-17.202-0.288-32.165 1.283-51.307 10.387-22.723 46.093-36.815 83.821-51.707 33.212-13.107 70.859-27.958 100.889-52.24 36.209-29.272 55.196-66.753 58.050-114.591 0.339-5.645-1.673-11.187-5.552-15.302z" />
<glyph unicode="&#xe907;" glyph-name="erweima" d="M514.060-100.697c-65.455 0-128.957 12.821-188.741 38.108-57.74 24.421-109.594 59.381-154.121 103.91-44.527 44.527-79.487 96.38-103.909 154.119-25.286 59.783-38.107 123.283-38.107 188.735 0 65.454 12.821 128.955 38.107 188.739 24.422 57.74 59.381 109.594 103.909 154.121 44.527 44.528 96.381 79.488 154.121 103.91 59.784 25.288 123.285 38.11 188.741 38.11 65.453 0 128.953-12.821 188.737-38.108 57.74-24.422 109.594-59.382 154.12-103.91 44.528-44.527 79.489-96.382 103.912-154.121 25.287-59.784 38.108-123.286 38.108-188.739s-12.821-128.952-38.108-188.736c-24.422-57.739-59.383-109.592-103.912-154.118-44.528-44.528-96.381-79.488-154.12-103.91-59.785-25.289-123.285-38.11-188.737-38.11zM514.060 850.634c-257.207 0-466.46-209.253-466.46-466.46 0-257.202 209.253-466.453 466.459-466.453 257.205 0 466.457 209.25 466.457 466.453 0.001 257.207-209.252 466.46-466.456 466.46zM252.989 666.185h222.914c22.665-2.242 17.201-42.145 17.201-68.070v-123.424c0-26.827 5.053-59.704-12.712-67.323-11.574-4.961-42.628-1.496-57.602-1.496h-118.183c-27.324 0-64.631-6.519-68.822 17.205v225.905c3.056 8.415 8.428 14.51 17.204 17.204v0zM283.661 615.319v-160.826h160.826v163.070h-160.077c-0.873-0.124-0.814-1.184-0.749-2.244v0zM552.203 666.185h222.924c9.094-3.373 15.338-9.593 17.203-20.197v-219.918c-2.038-9.141-6.812-16.945-15.708-19.449-14.54-4.093-38.702-0.749-56.104-0.749h-114.456c-17.259 0-42.84-3.636-56.85 0.749-19.785 6.19-14.215 44.799-14.215 71.809v115.197c0 31.184-6.844 68.201 17.205 72.558v0zM582.875 615.319v-160.826h160.834v163.070h-160.088c-0.87-0.124-0.811-1.184-0.746-2.244v0zM356.966 568.192c22.398 4.228 40.011-10.906 40.395-31.414 0.503-27.049-27.122-41.907-48.622-30.673-24.595 12.859-22.977 56.199 8.227 62.087v0zM656.182 568.192c52.764 9.858 51.751-73.695 0-65.076-32.93 5.483-33.993 58.728 0 65.076v0zM474.407 102.171h-220.669c-9.163 2.81-15.351 8.589-17.953 17.953v225.156c2.179 6.589 7.207 14.275 14.96 16.459 14.647 4.118 38.563 0.748 56.106 0.748h114.445c16.917 0 41.531 3.772 56.851-0.748 20.727-6.118 14.958-44.106 14.958-71.063v-118.937c0-29.097 6.271-66.969-18.697-69.567v0zM283.661 311.622v-160.83h160.826v163.074h-160.077c-0.873-0.128-0.814-1.183-0.749-2.244v0zM792.329 342.29v-62.836c-1.743-21.195-0.247-45.628-0.745-68.070h-159.337v36.652c-14.963 1.747-33.165 0.253-49.372 0.75-1.747-47.378-0.248-97.991-0.748-146.615h-29.173c-25.084 5.029-17.954 42.667-17.954 72.562v115.944c0 17.433-3.53 43.57 0.746 57.598 5.104 16.736 27.232 14.215 49.375 14.215h108.468v-99.488h50.121c0.496 32.912-0.999 67.818 0.746 99.488 24.118 1.424 46.46 1.074 47.874-20.198v0zM360.708 265.244c23.917 2.645 43.684-20.34 34.409-45.633-12.861-35.055-74.349-21.878-62.837 22.442 3.185 12.251 12.38 21.411 28.428 23.191v0zM686.106 102.171h-53.86c0.495 19.202-0.999 40.394 0.749 58.348h53.11v-58.348h0.001zM792.329 160.518v-38.15c-2.078-10.637-8.3-17.131-17.953-20.197h-38.15c0.497 19.202-0.998 40.394 0.749 58.348 18.451-0.001 36.903-0.001 55.354-0.001v0z" />
<glyph unicode="&#xe908;" glyph-name="kehu" d="M176.698-58.069c-15.203 0-27.567 13.026-27.567 29.048v78.667c0 157.376 89.829 296.962 228.85 355.592l15.746 6.638-13.361 11.064c-52.179 43.279-82.129 107.941-82.129 177.405-0.001 124.459 95.991 225.72 213.967 225.72 117.987 0 213.966-101.262 213.966-225.72 0-69.465-29.943-134.128-82.13-177.405l-13.349-11.064 15.733-6.638c139.042-58.629 228.876-198.216 228.864-355.598v-78.66c0-16.022-12.369-29.053-27.575-29.053l-671.013 0.005zM512.245 400.892c-169.816 0-335.674-137.267-332.686-351.252v-75.883h665.289v75.883c-0.876 212.67-162.834 351.252-332.605 351.252v0zM512.203 798.184c-103.35 0-187.418-88.744-187.418-197.84 0-109.094 84.068-197.83 187.418-197.83 103.346 0 187.442 88.737 187.442 197.83 0.001 109.097-84.096 197.84-187.442 197.84v0zM27.588 59.943c-15.212 0-27.588 13.017-27.588 29.029v60.859c0 114.285 59.428 217.761 155.085 270.017l11.256 6.159-8.532 9.956c-29.638 34.482-45.959 78.876-45.959 125.012 0 98.539 75.032 181.339 167.94 186.185-9.278-14.552-13.286-27.503-16.094-40.662-79.712-10.828-121.175-75.115-121.175-147.972 0-71.545 21.277-95.354 60.261-116.61 11.368-9.706 11.688-14.811 12.515-20.754-0.41-7.437-4.301-13.418-9.069-15.756l-12.049-3.902c-103.698-27.621-163.433-138.153-163.433-250.989l-0.075-55.54 59.523 0.711c-3.106-19.127-3.106-19.127-5.39-35.743h-57.218zM939.204 59.943c-1.224 12.685-2.303 22.377-5.381 31.803h59.76v58.083c-3.354 118.167-58.549 229.347-167.32 254.696l-7.006 2.199c-5.776 3.053-6.363 8.709-6.65 14.56 0 11.661 5.476 12.804 16.956 17.378 39.79 43.169 52.188 72.125 52.188 122.31-12.642 103.496-50.137 126.686-117.461 146.556-6.852 22.969-5.71 19.162-20.157 39.646 92.948-4.787 168.038-87.603 168.038-186.201 0-46.156-16.329-90.552-45.961-125.012l-8.538-9.942 11.277-6.173c95.63-52.255 155.052-155.717 155.052-270.017v-60.859c0-15.996-12.357-29.022-27.567-29.022l-57.231-0.007z" />
<glyph unicode="&#xe909;" glyph-name="jiangchi" d="M502.851 600.609c-4.978-4.072-7.806-8.258-8.541-12.585-0.678-4.355-0.736-9.163-0.17-14.452l-28.395-3.337c-45.929-4.44-77.181-18.129-93.783-41.009s-26.246-45.873-28.876-68.951c-2.206-17.422-1.046-33.316 3.479-47.711s12.105-26.331 22.654-35.862c10.606-9.531 23.474-17.422 38.661-23.7 15.216-6.278 28.904-10.889 41.094-13.829s27.236-5.798 45.166-8.655v-164.374l-32.609 9.418c-7.070 1.641-16.828 6.137-29.3 13.519-12.473 7.41-23.785 15.923-33.826 25.51-10.040 9.645-17.111 20.051-21.155 31.308-4.045 11.2-8.796 19.571-14.339 25.058s-12.246 5.769-20.080 0.905c-7.863-4.864-11.793-13.18-11.793-24.917s3.789-23.955 11.313-36.625c7.551-12.642 16.318-24.096 26.273-34.306 10.011-10.238 22.625-19.656 37.954-28.282 15.301-8.597 29.498-14.848 42.593-18.836 13.095-3.931 28.055-7.721 44.997-11.369v-17.62c0-4.667 2.177-9.474 6.476-14.424 4.355-4.978 11.030-7.014 19.995-6.081 8.994 0.877 14.877 3.535 17.676 7.89 2.772 4.327 4.186 9.135 4.186 14.424v14.311l44.091 7.607c15.923 2.008 33.033 8.938 51.36 20.816 18.298 11.822 32.213 25.454 41.687 40.839s14.933 31.902 16.46 49.522 0.141 33.599-4.072 47.994c-4.242 14.395-10.181 26.614-17.846 36.766s-17.223 18.637-28.706 25.51-24.662 12.161-39.566 15.809-36.031 7.183-63.408 10.634v154.956l22.031-3.337c9.446-1.216 19.939-6.222 31.393-15.046 11.483-8.796 20.448-19.090 26.868-30.827l13.914-31.591c4.045-8.513 9.616-14.877 16.771-19.147s14.141-4.299 20.985-0.141c6.844 4.13 10.917 10.408 12.246 18.836 1.329 8.399-1.726 19.627-9.050 33.684-7.353 14.085-14.904 26.641-22.654 37.671-7.778 11.059-18.496 21.126-32.213 30.233s-26.472 15.385-38.322 18.836-25.907 6.675-41.97 9.729v7.89c0.594 11.143-4.638 17.818-15.696 20.051s-19.005 1.329-23.955-2.716zM494.169 376.392l-23.559 4.554c-17.308 3.224-32.213 7.834-44.685 13.829-12.5 5.968-21.664 14-27.518 24.152-6.844 11.341-9.163 23.955-6.958 37.841 2.206 13.858 6.788 25.651 13.745 35.381s15.725 17.111 26.302 22.173c10.549 5.062 20.024 8.399 28.395 10.011 8.343 1.641 19.769 2.857 34.277 3.648v-151.591zM542.531 325.653l32.92-3.026c22.767-2.008 38.831-7.042 48.333-15.046 9.446-7.975 15.809-17.874 19.005-29.611 3.224-11.737 4.355-23.869 3.337-36.286-1.019-12.473-4.581-23.983-10.747-34.504-6.137-10.521-14.961-19.344-26.556-26.444s-22.597-11.596-33.090-13.547c-10.464-1.895-21.551-3.281-33.202-4.101v162.564zM1014.104 438.385l-484.468 410.313c-7.863 6.675-19.373 6.703-27.292 0.113l-492.275-410.341c-8.314-6.929-10.069-18.978-4.101-27.999l94.971-143.418c3.196-4.864 8.287-8.173 14-9.192 5.883-0.961 11.652 0.396 16.318 3.874l41.546 30.856 80.123-363.366c2.15-9.729 10.776-16.63 20.702-16.63h486.419c10.040 0 18.722 7.070 20.758 16.884l75.456 362.969 46.439-26.331c9.87-5.628 22.343-2.433 28.395 7.099l87.193 137.591c5.713 8.965 3.931 20.731-4.186 27.575zM906.123 313.011l-54.16 30.715c-5.91 3.365-13.038 3.677-19.232 0.877-6.166-2.799-10.634-8.372-12.020-14.989l-77.888-374.593h-452.114l-83.517 378.723c-1.556 7.042-6.534 12.783-13.292 15.301s-14.311 1.47-20.080-2.857l-49.861-37.049-72.147 108.914 463.993 386.783 456.781-386.896-66.462-104.926z" />
<glyph unicode="&#xe90a;" glyph-name="kanjia" d="M136.463 225.173c-8.677 0-17.34 3.308-23.959 9.927l-101.158 101.127c-7.839 7.848-11.346 19.003-9.399 29.927l75.541 422.828c2.492 13.922 13.354 24.837 27.267 27.378l424.956 77.651c11.013 1.991 22.186-1.503 30.060-9.373l207.898-207.898c13.217-13.23 13.217-34.689 0-47.919-13.234-13.234-34.698-13.234-47.937 0l-195.324 195.329-384.344-70.229-68.287-382.278 88.651-88.611c13.226-13.234 13.234-34.698 0.004-47.937-6.619-6.615-15.292-9.923-23.968-9.923zM549.431-128.002c-47.631 0-92.411 18.564-126.084 52.246l-158.694 158.707c-13.234 13.221-13.234 34.68 0 47.901 13.234 13.234 34.68 13.234 47.919 0l158.702-158.702c20.882-20.896 48.633-32.401 78.156-32.401 0 0 0 0 0.022 0 29.524 0.022 57.292 11.523 78.17 32.401l296.239 296.199c20.878 20.891 32.383 48.655 32.383 78.183s-11.505 57.292-32.397 78.179l-68.447 68.447c-13.217 13.23-13.217 34.689 0 47.919 13.234 13.234 34.698 13.234 47.937 0l68.447-68.447c33.678-33.682 52.215-78.462 52.215-126.097 0-47.644-18.542-92.428-52.228-126.097l-296.23-296.185c-33.674-33.687-78.449-52.246-126.084-52.246h-0.027zM77.598 148.715c-10.823 0-21.468 5.17-28.021 14.786-10.548 15.469-6.557 36.555 8.903 47.076l680.321 463.893c15.411 10.57 36.52 6.553 47.081-8.903 10.539-15.465 6.557-36.542-8.921-47.081l-680.308-463.875c-5.835-3.999-12.485-5.897-19.056-5.897zM270.080 83.709c-10.823 0-21.468 5.165-28.021 14.777-10.548 15.473-6.557 36.555 8.903 47.076l680.326 463.875c15.425 10.565 36.507 6.557 47.076-8.898 10.543-15.465 6.557-36.542-8.921-47.081l-680.303-463.862c-5.839-3.999-12.485-5.888-19.060-5.888zM302.632 655.681c18.861-18.861 18.861-49.475 0-68.354-18.892-18.874-49.493-18.874-68.354 0-18.892 18.878-18.892 49.493 0 68.354 18.865 18.861 49.466 18.861 68.354 0z" />
<glyph unicode="&#xe90b;" glyph-name="duihao" d="M330.955 44.771l-330.955 356.361 42.138 39.134 292.051-314.47 650.927 597.432 38.884-42.368z" />
<glyph unicode="&#xe90c;" glyph-name="gouwuche" d="M754.064-98.083c-55.381 0-100.436 45.055-100.436 100.438s45.056 100.438 100.436 100.438c55.383 0 100.443-45.058 100.443-100.438 0-55.385-45.060-100.438-100.443-100.438zM754.064 54.795c-28.915 0-52.439-23.524-52.439-52.442 0-28.915 23.524-52.441 52.439-52.441s52.445 23.525 52.445 52.441c0 28.918-23.53 52.442-52.445 52.442zM438.967-98.083c-55.382 0-100.432 45.055-100.432 100.438s45.050 100.438 100.432 100.438c55.383 0 100.442-45.058 100.442-100.438 0-55.385-45.060-100.438-100.442-100.438zM438.967 54.795c-28.915 0-52.435-23.524-52.435-52.442 0-28.915 23.52-52.441 52.435-52.441 28.921 0 52.445 23.525 52.445 52.441 0.001 28.918-23.524 52.442-52.445 52.442zM334.556 206.99l-12.187 5.466c-12.479 5.634-14.050 14.924-17.853 37.368-1.981 11.685-4.646 28.693-7.927 50.559-5.5 36.656-12.833 87.584-21.79 151.377-15.244 108.538-30.119 218.233-30.269 219.329l0.531 0.073-2.062 5.88c-18.691 53.336-42.080 115.233-53.018 138.355-28.25-0.302-91.844 0.232-189.982 1.579l0.656 47.991c70.738-0.963 186.554-2.212 199.075-1.485 20.541 2.604 29.133-17.041 38.222-37.831 5.744-13.136 13.057-31.417 21.743-54.335 8.922-23.52 17.519-47.288 22.916-62.39 248.55-0.768 694.296-2.046 707.681-1.726 9.278 0.237 17.884-4.687 22.42-12.897 6.057-10.963 11.286-20.431-59.768-240.064-0.684-2.093-67.95-209.777-82.387-231.395-4.937-7.385-12.571-11.597-20.81-11.616-29.613-0.827-413.707-0.888-510.17-0.891l-5.020-3.347zM294.352 660.891c18.967-139.479 47.278-342.505 57.373-402.557 157.96 0.014 420.372 0.167 483.182 0.666 24.718 59.433 110.171 319.776 129.389 400.159-114.496 0.047-551.554 1.366-669.943 1.732zM202.283 815.65c1.27 0 2.598 0.073 3.963 0.284-0.704-0.109-2.027-0.202-3.963-0.284z" />
<glyph unicode="&#xe90d;" glyph-name="tanhao" d="M512 896c-282.759 0-512-229.207-512-512 0-282.76 229.241-512 512-512s512 229.24 512 512c0 282.793-229.24 512-512 512zM512-79.241c-255.862 0-463.241 207.413-463.241 463.241 0 255.862 207.378 463.241 463.241 463.241 255.828 0 463.242-207.378 463.242-463.241-0.001-255.828-207.416-463.241-463.242-463.241zM512 684.136c-29.243 0-52.965-23.723-52.965-52.965v-317.793c0-29.241 23.724-52.964 52.965-52.964 29.243 0 52.965 23.724 52.965 52.964v317.794c0 29.242-23.723 52.964-52.965 52.964zM512 189.791c-29.243 0-52.965-23.723-52.965-52.964s23.724-52.965 52.965-52.965c29.243 0 52.965 23.724 52.965 52.965s-23.723 52.964-52.965 52.964z" />
<glyph unicode="&#xe90e;" glyph-name="jiahao2" d="M556.8 406.401h428.8c19.2 0 38.4-12.8 38.4-32s-12.8-32-38.4-32h-428.8v-428.8c0-19.2-19.2-38.4-32-38.4-19.2 0-32 12.8-32 38.4v422.4h-454.4c-25.6 0-38.4 12.8-38.4 32s12.8 32 38.4 32h454.4v454.4c-6.4 25.6 12.8 38.4 32 38.4s32-12.8 32-38.4v-448z" />
<glyph unicode="&#xe90f;" glyph-name="baoming" d="M404.647 351.797l-11.619-197.059c-22.413-20.252-34.285-38.101-30.882-56.346 3.899-20.893 27.053-36.272 75.078-49.87l3.941-1.115c32.743-9.268 63.669-18.022 87.125-26.21 23.498-8.203 32.906-13.651 36.642-16.531-5.438-3.358-21.522-10.056-68.479-17.88-6.376-1.062-10.683-7.093-9.621-13.468 0.954-5.725 5.912-9.782 11.531-9.782 0.639 0 1.287 0.053 1.937 0.161 64.545 10.754 88.917 21.486 89.92 39.594 1.375 24.799-42.747 38.351-142.679 66.637l-3.94 1.115c-48.265 13.665-57.335 25.691-58.445 31.641-1.279 6.859 5.19 16.263 14.269 25.733l165.806 128.985 193.85 347.583-160.582 81.266-193.851-334.453zM694.455 585.223l-165.477-296.712-85.070-66.177 6.818 115.606 166.097 286.57 77.633-39.287zM512 896c-282.77 0-512-229.231-512-512s229.23-511.999 512-511.999 512 229.231 512 511.999c0 282.769-229.231 512-512 512zM840.935 55.063c-42.737-42.737-92.491-76.285-147.878-99.712-57.32-24.245-118.238-36.538-181.058-36.538s-123.737 12.293-181.058 36.538c-55.389 23.428-105.142 56.976-147.88 99.712-42.737 42.738-76.285 92.491-99.713 147.88-24.245 57.32-36.538 118.236-36.538 181.057s12.293 123.737 36.538 181.058c23.428 55.389 56.976 105.142 99.713 147.88s92.491 76.285 147.88 99.713c57.32 24.245 118.238 36.538 181.058 36.538s123.737-12.293 181.058-36.538c55.387-23.428 105.142-56.976 147.878-99.713 42.738-42.737 76.286-92.491 99.713-147.88 24.245-57.32 36.538-118.238 36.538-181.058s-12.293-123.736-36.538-181.057c-23.427-55.389-56.975-105.142-99.713-147.88z" />
<glyph unicode="&#xe910;" glyph-name="sousuo" d="M218.41 355.517c1.847 147.626 76.695 255.058 187.969 296.435 114.303 42.411 244.344 7.832 324.438-86.374 76.99-90.512 90.733-225.281 26.082-329.905-25.343-40.86-21.501-63.912 13.374-92.95 32.88-27.486 61.105-60.661 90.955-91.694 8.866-9.236 20.467-20.393 6.428-32.584-11.009-9.679-21.871 0.074-29.924 7.98-35.983 35.096-72.853 69.454-106.841 106.471-21.797 23.644-38.2 24.087-65.39 6.059-96.127-63.764-198.682-66.203-298.134-11.231-97.9 54.159-147.035 141.863-148.956 227.794zM253.211 381.451c0.296-140.238 114.747-255.797 254.615-257.053 137.578-1.256 255.797 117.702 255.058 256.462-0.739 139.868-118.145 256.388-256.683 254.762-137.356-1.626-253.285-118.071-252.989-254.171zM1022.892 383.741c1.108-281.214-222.548-509.599-499.919-510.633-298.208-1.108-522.751 219.223-522.824 513.071-0.148 281.436 227.35 508.786 509.599 509.303 286.312 0.517 511.963-224.616 513.145-511.741zM44.776 387.362c-0.369-265.476 207.179-472.581 472.581-471.547 252.472 1.034 460.612 210.356 461.646 464.306 1.108 260.821-206.662 470.439-466.523 470.808-257.348 0.296-467.335-207.844-467.705-463.567z" />
<glyph unicode="&#xe911;" glyph-name="miaosha" d="M925.903 351.068h-149.193c-18.185 0-32.929 14.744-32.929 32.929 0 18.189 14.744 32.929 32.929 32.929h149.193c18.18 0 32.925-14.74 32.925-32.929 0.004-18.185-14.744-32.929-32.925-32.929zM882.137 570.013h-149.224c-18.185 0-32.929 14.74-32.929 32.929s14.744 32.929 32.929 32.929h149.224c18.18 0 32.925-14.74 32.925-32.929s-14.749-32.929-32.925-32.929zM955.116 146.715h-149.224c-18.185 0-32.929 14.744-32.929 32.929 0 18.18 14.744 32.925 32.929 32.925h149.224c18.18 0 32.929-14.744 32.929-32.925 0-18.185-14.749-32.929-32.929-32.929zM991.071-79.524h-807.062c-101.462 0-184.009 82.552-184.009 184.023v558.993c0 101.48 82.543 184.031 184.009 184.031h644.909c18.18 0 32.925-14.74 32.925-32.929s-14.744-32.929-32.925-32.929h-644.909c-65.146 0-118.147-53.010-118.147-118.169v-558.997c0-65.155 53.001-118.164 118.147-118.164h807.062c18.185 0 32.929-14.744 32.929-32.925 0-18.189-14.744-32.933-32.929-32.933zM539.224 351.068h-309.78c-18.189 0-32.929 14.744-32.929 32.929 0 18.189 14.74 32.929 32.929 32.929h309.78c18.18 0 32.925-14.74 32.925-32.929 0-18.185-14.744-32.929-32.925-32.929zM229.444 351.068c-8.434 0-16.858 3.218-23.289 9.649-12.857 12.853-12.857 33.708 0 46.57l219.039 219.030c12.871 12.84 33.721 12.857 46.579 0 12.857-12.866 12.857-33.717 0-46.579l-219.039-219.021c-6.435-6.435-14.865-9.649-23.289-9.649zM320.18 132.029c-8.425 0-16.858 3.218-23.289 9.649-12.857 12.853-12.857 33.712 0 46.565l219.039 219.043c12.866 12.866 33.708 12.866 46.57 0 12.866-12.866 12.866-33.721 0-46.57l-219.030-219.039c-6.426-6.431-14.86-9.649-23.289-9.649z" />
<glyph unicode="&#xe912;" glyph-name="yuanquantanhao" d="M992.015 383.991c0 132.538-53.707 252.542-140.6 339.397-86.78 86.818-206.785 140.563-339.417 140.563-132.519 0-252.486-53.745-339.342-140.562-86.855-86.856-140.637-206.861-140.637-339.398 0-132.519 53.782-252.562 140.637-339.455 86.856-86.816 206.823-140.561 339.342-140.561 132.633 0 252.637 53.745 339.417 140.561 86.893 86.893 140.6 206.937 140.6 339.455v0zM874.079 746.013c92.605-92.68 149.921-220.69 149.921-362.022 0-141.389-57.315-269.399-149.921-362.006-92.719-92.68-220.728-149.957-362.080-149.957s-269.36 57.277-361.966 149.958c-92.681 92.606-150.034 220.618-150.034 362.005 0 141.332 57.352 269.341 150.033 362.022 92.606 92.643 220.616 149.959 361.968 149.959s269.36-57.315 362.079-149.959zM553.605 276.802c0-22.925-18.642-41.567-41.606-41.567v0c-22.963 0-41.53 18.642-41.53 41.567v429.26c0 22.926 18.567 41.53 41.53 41.53v0c22.963 0 41.606-18.604 41.606-41.53v-429.26zM571.494 96.1c0-32.772-26.571-59.381-59.494-59.381-32.848 0-59.459 26.609-59.459 59.381 0 32.922 26.609 59.532 59.459 59.532 32.922 0 59.494-26.609 59.494-59.532z" />
</font>
</defs>
</svg>
